<svg viewBox="0 0 600 150" version="1.1" xmlns="http://www.w3.org/2000/svg" xmlns:xlink="http://www.w3.org/1999/xlink"><title>4DCBD928-5DAE-4F84-8226-A3BE5AF701C7</title><desc>Created with sketchtool.</desc><defs></defs><g id="Symbols" stroke="none" stroke-width="1" fill="none" fill-rule="evenodd"><g id="base/logo/alone" fill="#1783FA"><g id="logo"><path d="M387.503908,25.7012917 L381.982909,25.7012917 C379.403945,25.7012917 377.315458,27.789625 377.315458,30.3723333 L377.315458,41.982125 L377.315458,41.9910833 L377.315458,55.2731667 L377.315458,86.0367083 L377.315458,91.5312917 C377.315458,108.278375 387.758099,121.192125 404.96563,121.192125 L415.84483,121.192125 C418.421088,121.192125 420.512489,119.102125 420.512489,116.519417 L420.512489,112.615042 C420.512489,110.023375 418.399853,107.924417 415.815268,107.940458 L407.516282,107.981292 C396.380601,107.981292 392.69931,101.006708 392.170527,86.0367083 L392.170527,55.2731667 L415.815268,55.2731667 C418.395482,55.2731667 420.480221,53.179625 420.480221,50.6037917 L420.480221,46.653375 C420.480221,44.0704583 418.395482,41.982125 415.815268,41.982125 L392.170527,41.982125 L392.170527,30.3723333 C392.170527,27.789625 390.081207,25.7012917 387.503908,25.7012917" id="Fill-1"></path><path d="M515.292391,41.9911667 L507.936472,41.9911667 C498.805588,41.9911667 491.51712,45.4953333 486.556131,51.2299167 C481.66884,45.4953333 474.455109,41.9911667 465.326723,41.9911667 L457.981421,41.9911667 C440.07981,41.9911667 429.211436,55.4242917 429.211436,72.86325 L429.211436,116.519292 C429.211436,119.102 431.296175,121.192208 433.873474,121.192208 L439.363246,121.192208 C441.942419,121.192208 444.031738,119.102 444.031738,116.519292 L444.031738,75.1009583 C444.031738,64.54575 449.025619,55.2659583 461.65376,55.2659583 C474.283566,55.2659583 479.078217,64.54575 479.078217,75.1009583 L479.078217,116.519292 C479.078217,119.102 481.166703,121.192208 483.745876,121.192208 L489.328914,121.192208 C491.906213,121.192208 493.997406,119.102 493.997406,116.519292 L493.997406,75.1009583 C493.997406,64.54575 498.992953,55.2659583 511.614015,55.2659583 C524.236743,55.2659583 529.031394,64.54575 529.031394,75.1009583 L529.031394,116.519292 C529.031394,119.102 531.125293,121.192208 533.700927,121.192208 L539.075782,121.192208 C541.653289,121.192208 543.739278,119.102 543.739278,116.519292 L543.739278,72.86325 C543.739278,55.4242917 533.189839,41.9911667 515.292391,41.9911667" id="Fill-3"></path><path d="M354.479339,41.9911667 C336.575646,41.9911667 325.712685,55.4242917 325.712685,72.86325 L325.712685,116.519292 C325.712685,119.102 327.80471,121.192208 330.382218,121.192208 L335.870116,121.192208 C338.447415,121.192208 340.539441,119.102 340.539441,116.519292 L340.539441,75.1009583 C340.539441,64.54575 345.534155,55.2659583 358.15605,55.2659583 L364.240391,55.2659583 C366.81769,55.2659583 368.910549,53.1742917 368.910549,50.59325 L368.910549,46.657 C368.910549,44.07575 366.811445,41.9859583 364.231439,41.9859583 L361.835259,41.9911667 L354.479339,41.9911667 Z" id="Fill-5"></path><path d="M308.028728,33.3658958 L301.299022,33.3658958 C298.64178,33.3658958 296.490215,31.2117292 296.490215,28.5508958 L296.490215,21.8290208 C296.490215,19.1713125 298.64178,17.0173542 301.299022,17.0173542 L308.028728,17.0173542 C310.679724,17.0173542 312.828792,19.1713125 312.828792,21.8290208 L312.828792,28.5508958 C312.828792,31.2117292 310.679724,33.3658958 308.028728,33.3658958" id="Fill-7"></path><path d="M281.04753,64.9372292 C274.054889,48.4195208 257.073028,38.3286875 238.900988,40.4951458 C219.531898,42.7951458 204.448245,58.9570208 203.393384,78.4468125 C202.137628,101.777021 220.735193,121.154729 243.774956,121.154729 L256.077707,121.186813 C258.656672,121.192229 260.741619,119.927438 260.741619,117.353688 L260.741619,111.953271 C260.741619,109.381188 258.656672,108.079313 256.091656,108.079313 L244.332885,108.079313 C230.303259,108.079313 218.428115,95.4963958 218.012166,81.4653542 C217.581228,66.8776458 229.304608,54.8801458 243.777454,54.8801458 C252.538605,54.8801458 260.631491,59.2897292 265.41823,66.6695208 C268.13064,70.8461875 269.566058,75.6880625 269.566058,80.6791042 L269.566058,116.519313 C269.566058,119.102021 271.654337,121.192229 274.23455,121.192229 L279.559025,121.192229 C282.137157,121.192229 284.226684,119.102021 284.226684,116.519313 L284.226684,80.6791042 C284.226684,75.2236875 283.163705,69.9266042 281.04753,64.9372292" id="Fill-9"></path><path d="M301.915908,121.202792 L307.444818,121.202792 C310.02295,121.202792 312.112477,119.10925 312.112477,116.530083 L312.112477,46.6550833 C312.112477,44.0757083 310.02295,41.9859167 307.444818,41.9859167 L301.915908,41.9859167 C299.338609,41.9859167 297.25262,44.0757083 297.25262,46.6550833 L297.25262,116.530083 C297.25262,119.10925 299.338609,121.202792 301.915908,121.202792" id="Fill-11"></path><path d="M572.591974,40.2038542 L572.591974,32.6213542 L569.303107,40.2038542 L567.381999,40.2038542 L564.191187,32.7190625 L564.191187,40.2038542 L561.716522,40.2038542 L561.716522,28.3253125 L564.939811,28.3253125 L568.424577,36.5919792 L571.908095,28.3253125 L574.936109,28.3253125 L574.936109,40.2038542 L572.591974,40.2038542 Z M556.018775,30.5386458 L556.018775,40.2038542 L553.544527,40.2038542 L553.544527,30.5386458 L549.89717,30.5386458 L549.89717,28.3253125 L559.664883,28.3253125 L559.664883,30.5386458 L556.018775,30.5386458 Z" id="Fill-18"></path><path d="M93.1821642,131.801646 L93.1821642,136.000187 C93.1821642,136.814146 92.5245157,137.473938 91.7105223,137.473938 C90.8998597,137.473938 90.2405458,136.814146 90.2405458,136.000187 L90.2405458,131.826437 C87.3343184,131.595188 85.0876131,130.644563 83.6353322,129.742687 C82.784074,129.186854 82.3396045,128.334563 82.3396045,127.450604 C82.3396045,126.113104 83.3751041,125.043937 84.778254,125.043937 C85.3719904,125.043937 85.9265885,125.227271 86.3708499,125.486229 C88.4435147,126.636021 89.9205693,127.114354 91.7717279,127.114354 C94.4335491,127.114354 95.8768782,125.894979 95.8768782,124.150188 C95.8768782,122.671229 94.9916863,121.747062 91.9948995,121.343312 L90.661699,121.158313 C85.5212572,120.450396 82.7085038,118.044563 82.7085038,113.604771 C82.7085038,109.386437 85.6066121,106.471229 90.2405458,105.984771 L90.2405458,102.512479 C90.2405458,101.704979 90.8998597,101.044979 91.7105223,101.044979 C92.5245157,101.044979 93.1821642,101.704979 93.1821642,102.512479 L93.1821642,105.991646 C95.394103,106.201646 97.4515704,106.820604 98.6496606,107.569563 C99.5383916,108.124354 99.9437228,108.867271 99.9437228,109.757271 C99.9437228,111.127062 98.9092641,112.124771 97.5796026,112.124771 C97.0589383,112.124771 96.5043402,111.975396 95.9851331,111.719354 C94.9125769,111.199979 93.57667,110.813104 92.2151566,110.718938 C91.8375136,110.690396 91.5575081,110.698313 91.1806979,110.712479 C89.2787428,110.865396 88.2586486,111.910604 88.2586486,113.382479 C88.2586486,114.788521 89.2566754,115.753729 92.1797656,116.157271 L93.5092189,116.344146 C98.7243981,117.086646 101.425982,119.413313 101.425982,123.967896 C101.425982,128.126646 98.6425824,131.281229 93.1821642,131.801646 M84.5142786,89.4253958 C76.8739817,92.3485208 70.3466283,92.8276875 65.6927091,92.5649792 L62.2000317,145.457896 C62.0212029,147.956229 63.9223253,149.999979 66.425095,149.999979 L117.339659,149.999979 C119.842428,149.999979 121.743343,147.956229 121.564098,145.457896 L118.1218,93.3087292 C98.1666772,97.6920625 84.5142786,89.4253958 84.5142786,89.4253958" id="Fill-16"></path><path d="M155.790504,47.9735208 C156.843283,27.4239375 142.190984,7.24560417 122.160291,1.83289583 C117.771596,0.651020833 112.920111,-2.08333333e-05 108.499565,-2.08333333e-05 C107.47614,-2.08333333e-05 106.483526,0.0343541667 105.551076,0.101645833 C91.1710798,1.1089375 77.9402507,8.4183125 70.0114129,19.6985208 C66.3220031,18.4639375 62.4443963,17.8387292 58.4735237,17.8387292 C51.5364672,17.8387292 44.5994108,19.7645625 38.4124357,23.4078958 C28.2262753,29.4064375 21.2867207,39.5606042 19.7713604,50.6424792 C7.06244479,57.4912292 -0.6669542,71.1901875 0.0452380521,85.6810208 C1.03056571,105.737271 17.9285291,121.448313 38.5150697,121.448313 L58.2345302,121.448313 C58.7050226,121.448313 59.097863,121.089354 59.1405404,120.620604 L60.050506,110.689979 C60.0742388,110.434979 59.9893003,110.182063 59.8167171,109.993104 C59.6445501,109.803729 59.4003521,109.696021 59.1444958,109.696021 L37.6246732,109.696021 C30.5085798,109.696021 23.8706816,106.853521 18.9332178,101.692479 C14.0011667,96.5364375 11.4563441,89.7699792 11.7677851,82.6395625 C12.2014292,72.7139375 18.6638297,63.6870625 28.2321045,59.6426875 L30.2085889,58.8066458 C30.5102453,58.6795625 30.7200932,58.3997708 30.7583988,58.0741458 L31.2426312,53.8918542 C31.7630874,45.6793542 36.6701566,38.0710208 44.3695773,33.5389375 C48.7543166,30.9564375 53.632032,29.5918542 58.4756055,29.5918542 C62.1789636,29.5918542 65.6972475,30.3716458 68.9326113,31.9101875 L73.9618836,34.3008125 C74.3880331,34.5020625 74.9003702,34.3449792 75.1391555,33.9364375 L78.2229625,28.6389375 C83.7722746,19.0958125 94.5588333,12.6522708 106.37194,11.8228958 C110.236223,11.5587292 114.95447,12.0618542 119.101257,13.1810208 C134.56755,17.3608125 145.90371,34.0512292 143.855611,49.6287292 L143.062852,55.6995625 C143.003936,56.1516458 143.288314,56.5778958 143.728203,56.6966458 L149.214228,58.1781042 C160.498967,61.2424792 168.380756,71.5678958 168.380756,83.2868542 C168.380756,97.8491458 156.720455,109.696021 142.387925,109.696021 L124.620383,109.696021 C124.364318,109.696021 124.120329,109.803729 123.947953,109.993104 C123.775578,110.182063 123.69064,110.434979 123.714165,110.689979 L124.624338,120.624146 C124.667016,121.092896 125.059856,121.451854 125.530348,121.451854 L142.387925,121.451854 C163.196804,121.451854 180.126203,104.331229 180.126203,83.2868542 C180.126203,67.6181042 170.374519,53.5143542 155.790504,47.9735208" id="Fill-13"></path></g></g></g></svg>