<svg id="Ebene_2" data-name="Ebene 2" xmlns="http://www.w3.org/2000/svg" viewBox="0 0 273.3 83.54"><defs><style>.cls-1{fill:none;}</style></defs><title>Logo_Centrifuge_sw_Logo</title><path class="cls-1" d="M312.74,108.65a7.86,7.86,0,0,0-3,.54A6.55,6.55,0,0,0,306,113a8,8,0,0,0-.54,3,7,7,0,0,0,2.05,5,7.09,7.09,0,0,0,2.3,1.53,7.22,7.22,0,0,0,2.87.57,7.85,7.85,0,0,0,3.05-.57A7,7,0,0,0,318,121a6.45,6.45,0,0,0,1.46-2.28,7.91,7.91,0,0,0,.52-2.87,7.15,7.15,0,0,0-2-5.22A7.08,7.08,0,0,0,312.74,108.65Z" transform="translate(-81.82 -62.52)"/><path class="cls-1" d="M342.72,107.73a6,6,0,0,0-4.38,1.59,7.08,7.08,0,0,0-2,4.25H349a5.79,5.79,0,0,0-1.69-4.28A6.33,6.33,0,0,0,342.72,107.73Z" transform="translate(-81.82 -62.52)"/><path class="cls-1" d="M159.57,107.73a6,6,0,0,0-4.38,1.59,7.11,7.11,0,0,0-2,4.25h12.61a5.79,5.79,0,0,0-1.69-4.28A6.33,6.33,0,0,0,159.57,107.73Z" transform="translate(-81.82 -62.52)"/><path d="M168.76,106.6a10.11,10.11,0,0,0-3.64-2.59,12,12,0,0,0-4.69-.9,14.8,14.8,0,0,0-5.23.92,12.22,12.22,0,0,0-7.1,6.69,13.91,13.91,0,0,0,0,10.61,12.2,12.2,0,0,0,7.1,6.68,14.71,14.71,0,0,0,5.23.92,14.19,14.19,0,0,0,5.58-1.13,12.48,12.48,0,0,0,4.82-3.79l-4.41-3.33a10.64,10.64,0,0,1-2.74,2.38,7.33,7.33,0,0,1-3.87,1,6.73,6.73,0,0,1-4.46-1.54,6.26,6.26,0,0,1-2.16-4.3H172v-1.69a17.86,17.86,0,0,0-.84-5.71A12,12,0,0,0,168.76,106.6Zm-15.55,7a7.11,7.11,0,0,1,2-4.25,6,6,0,0,1,4.38-1.59,6.33,6.33,0,0,1,4.56,1.56,5.79,5.79,0,0,1,1.69,4.28H153.21Z" transform="translate(-81.82 -62.52)"/><path d="M197.12,106.09a7.91,7.91,0,0,0-2.79-2.15,9.64,9.64,0,0,0-4.18-.82,7.88,7.88,0,0,0-4.87,1.36,8.6,8.6,0,0,0-2.66,3.2h-0.1v-3.94h-5.85v24.59h6.15V114.91a9,9,0,0,1,.31-2.36,5.52,5.52,0,0,1,1-2,5,5,0,0,1,1.74-1.38,5.87,5.87,0,0,1,2.59-.51,3.89,3.89,0,0,1,2.51.75,4.38,4.38,0,0,1,1.35,1.84,8.24,8.24,0,0,1,.54,2.36c0.07,0.84.1,1.6,0.1,2.28v12.45h6.15V112.8a14.14,14.14,0,0,0-.46-3.64A8.17,8.17,0,0,0,197.12,106.09Z" transform="translate(-81.82 -62.52)"/><path d="M213.41,96.62h-6.15v7.12h-5.07V109h5.07v11.27a19.27,19.27,0,0,0,.33,3.79,6.23,6.23,0,0,0,1.23,2.74,5.26,5.26,0,0,0,2.46,1.64,12.58,12.58,0,0,0,4,.54,19.74,19.74,0,0,0,2.48-.18,7.78,7.78,0,0,0,2.38-.64v-5.17a3.8,3.8,0,0,1-1.54.59,9.81,9.81,0,0,1-1.79.18,3,3,0,0,1-2.74-1.08,5.33,5.33,0,0,1-.69-2.92V109h6.76v-5.22h-6.76V96.62Z" transform="translate(-81.82 -62.52)"/><path d="M237.49,103.12a8.08,8.08,0,0,0-4.35,1.18,7.71,7.71,0,0,0-2.92,3.33h-0.1v-3.89H224v24.59h6.15V115.16a7.76,7.76,0,0,1,.23-1.54,6,6,0,0,1,.92-2,6.35,6.35,0,0,1,2-1.82,6.62,6.62,0,0,1,3.46-.8,8.82,8.82,0,0,1,1.46.13c0.49,0.08,1,.2,1.51.33v-5.95c-0.38-.1-0.74-0.19-1.1-0.25A6,6,0,0,0,237.49,103.12Z" transform="translate(-81.82 -62.52)"/><rect x="161.15" y="41.21" width="6.15" height="24.59"/><path d="M246,91.7a3.79,3.79,0,0,0-2.79,1.1,3.59,3.59,0,0,0,0,5.17,3.78,3.78,0,0,0,2.79,1.1A4.06,4.06,0,0,0,248.84,98a3.6,3.6,0,0,0,0-5.28A4.06,4.06,0,0,0,246,91.7Z" transform="translate(-81.82 -62.52)"/><path d="M261.88,89.77a6.38,6.38,0,0,0-2.79,2.28,9,9,0,0,0-1.36,3.56,27.09,27.09,0,0,0-.36,4.64v3.49H252.3V109h5.07v19.37h6.15V109h5.69v-5.22h-5.69V99.28a13.8,13.8,0,0,1,.13-1.95,4,4,0,0,1,.56-1.61,3.15,3.15,0,0,1,1.2-1.1,4.4,4.4,0,0,1,2-.41,7.52,7.52,0,0,1,1.28.1c0.41,0.07.83,0.15,1.28,0.25l0.41-5.22a20,20,0,0,0-3.89-.36A11.59,11.59,0,0,0,261.88,89.77Z" transform="translate(-81.82 -62.52)"/><path d="M288.46,117.16a8.75,8.75,0,0,1-.31,2.36,5.41,5.41,0,0,1-1,2,5,5,0,0,1-1.74,1.38,5.87,5.87,0,0,1-2.59.51,3.87,3.87,0,0,1-2.53-.74,4.52,4.52,0,0,1-1.33-1.84,8.22,8.22,0,0,1-.53-2.36c-0.07-.84-0.1-1.6-0.1-2.28V103.74h-6.15v15.52a14.26,14.26,0,0,0,.46,3.64,8.4,8.4,0,0,0,1.54,3.1,7.51,7.51,0,0,0,2.79,2.15,9.89,9.89,0,0,0,4.17.79,7.88,7.88,0,0,0,4.87-1.35,8.65,8.65,0,0,0,2.67-3.2h0.1v3.94h5.84V103.74h-6.15v13.42Z" transform="translate(-81.82 -62.52)"/><path d="M320,107.42h-0.1a7.93,7.93,0,0,0-3.59-3.28,11.62,11.62,0,0,0-4.87-1,12.31,12.31,0,0,0-5.1,1,11.39,11.39,0,0,0-3.81,2.74,11.7,11.7,0,0,0-2.41,4.1,15.25,15.25,0,0,0-.82,5.07,13.75,13.75,0,0,0,.87,4.92,11.76,11.76,0,0,0,2.48,4,12,12,0,0,0,3.87,2.69,12.24,12.24,0,0,0,5,1,11.92,11.92,0,0,0,4.51-.9,8.14,8.14,0,0,0,3.53-2.69h0.1v1.79a13.72,13.72,0,0,1-.38,3.36,6.47,6.47,0,0,1-1.28,2.58,6,6,0,0,1-2.41,1.69,9.92,9.92,0,0,1-3.71.61,10.93,10.93,0,0,1-4.61-.92,15.18,15.18,0,0,1-3.84-2.61l-3.69,5a14.5,14.5,0,0,0,5.69,3.18,23.81,23.81,0,0,0,6.5.87,16.92,16.92,0,0,0,6.2-1,11.46,11.46,0,0,0,4.33-2.89,11.7,11.7,0,0,0,2.53-4.56,20.75,20.75,0,0,0,.82-6V103.74H320v3.69Zm-0.52,11.32A6.45,6.45,0,0,1,318,121a7,7,0,0,1-2.3,1.51,7.85,7.85,0,0,1-3.05.57,7.22,7.22,0,0,1-2.87-.57,7.09,7.09,0,0,1-2.3-1.53,7,7,0,0,1-2.05-5,8,8,0,0,1,.54-3,6.55,6.55,0,0,1,3.76-3.79,7.86,7.86,0,0,1,3-.54,7.08,7.08,0,0,1,5.33,2,7.15,7.15,0,0,1,2,5.22A7.91,7.91,0,0,1,319.5,118.75Z" transform="translate(-81.82 -62.52)"/><path d="M355.11,116.49a17.74,17.74,0,0,0-.84-5.71,12,12,0,0,0-2.36-4.17,10.08,10.08,0,0,0-3.64-2.59,12,12,0,0,0-4.69-.9,14.83,14.83,0,0,0-5.23.92,12.62,12.62,0,0,0-4.25,2.61,12.48,12.48,0,0,0-2.84,4.07,13.91,13.91,0,0,0,0,10.61,12.2,12.2,0,0,0,7.1,6.68,14.74,14.74,0,0,0,5.23.92,14.19,14.19,0,0,0,5.58-1.13A12.47,12.47,0,0,0,354,124l-4.4-3.33a10.66,10.66,0,0,1-2.74,2.38,7.32,7.32,0,0,1-3.87,1,6.71,6.71,0,0,1-4.45-1.54,6.23,6.23,0,0,1-2.16-4.3h18.75v-1.69Zm-18.75-2.92a7.08,7.08,0,0,1,2-4.25,6,6,0,0,1,4.38-1.59,6.33,6.33,0,0,1,4.56,1.56,5.79,5.79,0,0,1,1.69,4.28h-12.6Z" transform="translate(-81.82 -62.52)"/><path d="M145.62,97.24a21.34,21.34,0,0,0-14.93-6.46,20.46,20.46,0,1,0,13.8,35.53l1.07-1-4-5.2-1.26,1.19a13.91,13.91,0,1,1,.4-19.8l0.89,0.92,5.1-4.14Z" transform="translate(-81.82 -62.52)"/><path d="M133.85,76.58a34.82,34.82,0,0,0-6.4,69.35c0.82,0.08,1.63.11,2.44,0.13l0.29-6.27c-0.72,0-1.43,0-2.15-.11a28.55,28.55,0,1,1,24.81-46.39l4.86-3.94A36.13,36.13,0,0,0,133.85,76.58Z" transform="translate(-81.82 -62.52)"/><path d="M159.19,71.73a48.83,48.83,0,0,0-73,59.89l5.71-2.6a42.53,42.53,0,0,1,71.66-44.58l1.12-.77,3.78-3.07A47.78,47.78,0,0,0,159.19,71.73Z" transform="translate(-81.82 -62.52)"/></svg>