<svg xmlns="http://www.w3.org/2000/svg" width="1258" height="238" viewBox="0 0 1258 238">
  <defs>
    <linearGradient id="decred-a" x1="31.847%" x2="72.939%" y1="65.609%" y2="30.281%">
      <stop offset="0%" stop-color="#36BDBA"/>
      <stop offset="93%" stop-color="#39D8AA"/>
    </linearGradient>
    <linearGradient id="decred-b" x1="29.807%" x2="63.521%" y1="80.072%" y2="29.864%">
      <stop offset="20%" stop-color="#2576F4"/>
      <stop offset="100%" stop-color="#3298DA"/>
    </linearGradient>
  </defs>
  <g fill="none">
    <path fill="#00207A" d="M762.34 205.55C741.73 205.55 726.2 188.26 726.2 165.33L726.2 164.92C726.2 142.22 741.73 125.1 762.34 125.1 774.8 125.1 784.61 130.1 793.92 141.1L820.68 120.39C806.68 101.92 787.74 92.93 762.74 92.93 720.89 92.93 689.33 124.06 689.33 165.33L689.33 165.73C689.33 185.66 696.77 203.99 710.33 217.33 723.66 230.48 741.71 237.72 761.15 237.72 787.38 237.72 806.15 228.5 821.69 207.88L795.02 188.88C786.39 198.94 777.34 205.55 762.34 205.55zM936 184.77C949 179.25 964.43 167.42 964.43 142.35L964.43 141.94C964.43 128.3 960.43 117.79 952.27 109.82 942.46 99.82 927.15 94.74 906.74 94.74L840.61 94.74 840.61 234.84 876.54 234.84 876.54 191.2 897.12 191.2 926.12 234.84 967.36 234.84 933.75 185.73 936 184.77zM928.29 144.77C928.29 156.54 919.29 163.85 904.88 163.85L876.54 163.85 876.54 125.33 904.69 125.33C919.69 125.33 928.3 132.33 928.3 144.41L928.29 144.77z"/>
    <polygon fill="#00207A" points="1022.7 178.05 1091.87 178.05 1091.87 150.55 1022.7 150.55 1022.7 124.73 1099.08 124.73 1099.08 94.77 987.18 94.77 987.18 234.86 1100.11 234.86 1100.11 204.9 1022.7 204.9"/>
    <path fill="#00207A" d="M1237.21 114.27C1223.15 101.51 1202.88 94.77 1178.6 94.77L1125 94.77 1125 234.86 1177.76 234.86C1202.16 234.86 1222.62 227.86 1236.93 214.75 1250.64 202.14 1257.93 184.75 1257.93 164.4L1257.93 164C1257.91 143.75 1250.75 126.56 1237.21 114.27zM1220.94 165C1220.94 188.71 1204.94 203.44 1179.22 203.44L1161 203.44 1161 126.17 1179.27 126.17C1205.01 126.17 1220.99 140.9 1220.99 164.61L1220.94 165zM602.28 93.08C563.85 93.08 534.87 124.2 534.87 165.46 534.87 207.24 564.73 237.56 605.87 237.56 628.2 237.56 645.98 229.97 660.15 214.37L646 201.78C633.65 213.01 621.73 217.78 606.46 217.78 582.31 217.78 564.8 202.39 560.77 177.62L560.05 173.22 668.05 173.22C668.19 171.48 668.3 169.71 668.3 167.9 668.3 147.14 662.38 128.4 651.62 115.13 639.92 100.72 622.85 93.08 602.28 93.08zM559.86 158.76L560.44 154.47C563.83 129.17 580.15 112.82 602.01 112.82 624.5 112.82 640.12 128.82 642.76 154.59L643.19 158.76 559.86 158.76zM432.42 92.79C400.58 92.79 368.35 117.65 368.35 165.18 368.35 201.18 390.35 237.56 432.42 237.56 451.56 237.56 466.86 229.11 479.18 211.73L486.08 202.01 486.08 234.84 512 234.84 512 23.91 486.08 23.91 486.08 125.85 479.28 117.09C466.6 100.74 451.27 92.79 432.42 92.79zM486.64 165.18C486.64 194.18 466.78 216.07 440.45 216.07 413.85 216.07 394.54 194.67 394.54 165.18 394.54 135.18 413.42 114.28 440.45 114.28 466.78 114.28 486.64 136.16 486.64 165.18z"/>
    <path fill="url(#decred-a)" d="M221,178 L278,235 L222,235 L128,141 L186.16,141 C212.117383,141 233.16,119.957383 233.16,94 C233.16,68.0426168 212.117383,47 186.16,47 L167.2,47 L120.2,0 L184,0 C235.914766,1.47062564e-14 278,42.0852335 278,94 C278,132.12 261.2,162 221,178 Z"/>
    <path fill="url(#decred-b)" d="M57,57 L0,0 L56.05,0 L150.05,94 L91.89,94 C65.9326168,94 44.89,115.042617 44.89,141 C44.89,166.957383 65.9326168,188 91.89,188 L110.8,188 L157.8,235 L94,235 C42.0852335,235 6.35772526e-15,192.914766 0,141 C0,102.88 16.8,73 57,57 Z"/>
  </g>
</svg>
