<svg xmlns="http://www.w3.org/2000/svg" viewBox="0 0 35 55"><path d="M19.896 29.222c6.867 0 12.435 5.567 12.435 12.435 0 6.867-5.567 12.435-12.435 12.435-6.867 0-12.435-5.567-12.435-12.435h-1.243c-3.434 0-6.217-2.784-6.217-6.217 0-3.434 2.784-6.217 6.217-6.217h13.678zm-2.487-2.238c6.867 0 12.435-5.567 12.435-12.435 0-6.867-5.567-12.435-12.435-12.435-6.867 0-12.435 5.567-12.435 12.435 0 6.867 5.567 12.435 12.435 12.435zm13.678-20.766c1.717 0 3.109-1.392 3.109-3.109s-1.392-3.109-3.109-3.109-3.109 1.392-3.109 3.109 1.392 3.109 3.109 3.109z"/></svg>