<svg width="205" height="75" viewBox="0 0 205 75" xmlns="http://www.w3.org/2000/svg"><title>grid-logo</title><desc>Created with Sketch.</desc><g fill="none"><path d="M-38-93h260v260h-260z"/><g><path id="Rectangle" fill="#1B7448" d="M49.471 70.832h3.777v3.764h-3.777z"/><path id="Path" fill="#1B7448" fill-rule="nonzero" d="M48.227 72.296h-46.647v-11.497h49.36v8.794h1.554v-10.343h-52.469v14.596h48.201z"/><path d="M204.255 72.748h-50.292v-12.427h50.292v12.427zm-50.914 0h-50.292v-12.427h50.292v12.427zm-100.847-13.047v.62h49.932v12.427h-47.935v.62h150.386v-13.667h-152.383z" id="Shape" fill="#C6C8CA" fill-rule="nonzero"/><path d="M47.602 54.25c0 4.012-1.064 7.278-3.19 9.799-2.301 2.637-5.406 3.954-9.316 3.954h-18.111c-3.91 0-6.972-1.29-9.184-3.868-2.215-2.578-3.321-5.844-3.321-9.798v-40.57c0-3.954 1.106-7.22 3.321-9.799 2.212-2.579 5.274-3.868 9.184-3.868h17.766c4.139 0 7.316 1.276 9.531 3.825 2.212 2.551 3.319 5.917 3.319 10.1l-12.074 3.094c.056-3.322-1.639-4.986-5.089-4.986h-9.4c-2.991 0-4.485 1.434-4.485 4.298v35.5c0 2.693 1.466 4.039 4.398 4.039h10.263c2.874 0 4.312-1.375 4.312-4.126v-6.276h-8.97v-12.033h21.043v20.714z" fill="#231F20" fill-rule="nonzero"/><path d="M87.199 23.65v-7.22c0-2.864-1.352-4.298-4.053-4.298h-14.92v15.902h14.92c2.701 0 4.053-1.462 4.053-4.384zm12.074 44.353h-12.936l-10.35-27.935h-7.761v27.935h-12.075v-67.903h30.272c4.312 0 7.618 1.461 9.918 4.384 1.953 2.406 2.932 5.444 2.932 9.111v13.753c0 3.897-1.208 6.992-3.623 9.282-1.896 1.72-4.197 2.808-6.898 3.267l10.521 28.107z" id="Shape" fill="#231F20" fill-rule="nonzero"/><path fill="#231F20" d="M106.934.1h12.075v67.903h-12.075z"/><path d="M158.606 51.93v-35.757c0-2.693-1.439-4.041-4.312-4.041h-11.643v43.837h11.643c2.873 0 4.312-1.345 4.312-4.039zm12.074 2.32c0 4.012-1.065 7.279-3.191 9.799-2.301 2.636-5.405 3.954-9.316 3.954h-30.616v-12.034h3.018v-43.837h-3.018v-12.033h30.616c3.911 0 7.015 1.319 9.316 3.954 2.126 2.522 3.191 5.788 3.191 9.799v40.398z" fill="#231F20" fill-rule="nonzero"/></g></g></svg>