<svg xmlns="http://www.w3.org/2000/svg" viewBox="0 0 137 55"><g fill-rule="evenodd"><path d="M115.086.795h21.52v53.056h-13.975v-41.126h-7.545zM80.743 21.073c2.828-.17 5.506-.122 8.106-.552 2.217-.367 3.359-2.29 3.297-4.601-.061-2.265-1.37-4.156-3.586-4.388-2.547-.267-5.143-.062-7.816-.062v9.603zm.064 11.986v10.187c2.66 0 5.191.157 7.694-.043 2.637-.21 4.285-2.226 4.377-4.876.095-2.737-1.516-4.956-4.216-5.215-2.559-.245-5.16-.053-7.855-.053zm18.176-6.412c6.802 3.973 8.253 9.87 6.447 16.813-1.585 6.091-5.936 9.713-11.949 10.089-8.538.533-17.134.135-25.863.135v-52.892c.694-.043 1.295-.112 1.895-.113 6.598-.007 13.196-.017 19.794.012 1.161.005 2.333.117 3.481.304 6.099.99 10.459 4.135 12.028 10.338 1.58 6.251-.117 11.426-5.832 15.314zm-55.307.614c-.009-8.254-6.694-14.973-14.943-15.017-8.328-.045-15.143 6.714-15.157 15.031-.014 8.336 6.756 15.137 15.067 15.139 8.32.001 15.042-6.774 15.033-15.152m-43.675-.521c.226-13.482 10.333-24.686 24.258-26.43 11.202-1.403 20.815 1.897 27.719 10.997 12.045 15.875 2.714 39.02-17.024 42.692-10.922 2.032-20.465-.666-28.163-8.85-4.745-5.044-6.756-11.246-6.789-18.409"/></g></svg>