<svg xmlns="http://www.w3.org/2000/svg" viewBox="0 0 794 342" enable-background="new 0 0 794 342"><style type="text/css">.st0{fill:#28333D;}</style><path class="st0" d="M173.7 328.3c-86.8 0-157.4-70.6-157.4-157.4s70.6-157.4 157.4-157.4 157.4 70.6 157.4 157.4-70.6 157.4-157.4 157.4zm0-303.9c-80.7 0-146.4 65.7-146.4 146.5s65.7 146.4 146.4 146.4 146.4-65.7 146.4-146.4-65.6-146.5-146.4-146.5zM478.5 37.2c19 0 33.6 13.5 33.6 34.4s-14.6 34.4-33.6 34.4-33.6-13.5-33.6-34.4 14.6-34.4 33.6-34.4zm0 59.1c13.6 0 22.8-9.9 22.8-24.7 0-14.8-9.2-24.7-22.8-24.7s-22.8 9.9-22.8 24.7c0 14.8 9.2 24.7 22.8 24.7zM521.7 39.9c0-.9.4-1.3 1.3-1.3h7.7c.9 0 1.3.4 1.3 1.3v6.2c4.7-5.1 12.7-8.8 21.6-8.8 17.8 0 29.5 14 29.5 34.4s-11.7 34.4-29.5 34.4c-9.1 0-16.5-4-21.6-9v27.9c0 .9-.4 1.3-1.3 1.3h-7.7c-.9 0-1.3-.4-1.3-1.3v-85.1zm30.2 56.4c13.5 0 20.4-10.2 20.4-24.7s-7-24.7-20.4-24.7c-12.9 0-21 10.2-21 24.7s8 24.7 21 24.7zM601.9 74.8c1.1 12.9 9.2 21.5 22.2 21.5 9.1 0 15.8-3.6 19.4-12.1.4-1.1.9-1.2 1.8-1.2h8.6c.7 0 .9.4.9.9 0 .3 0 .5-.3 1.3-5 14-16.1 20.8-30.7 20.8-20.2 0-33-15-33-34.4s13.9-34.4 33-34.4c20.1 0 32.3 15.8 32.3 34.2v2.1c0 .9-.4 1.3-1.3 1.3h-52.9zm.5-9.7h42.6c-2.1-10.8-10.4-18.1-21.2-18.1-10.1 0-19 6.1-21.4 18.1zM666.9 39.9c0-.9.4-1.3 1.3-1.3h7.7c.9 0 1.3.4 1.3 1.3v7.5c5.1-6.2 12.4-10.2 21.9-10.2 13.9 0 23 8.6 23 24v42.2c0 .9-.4 1.3-1.3 1.3h-7.7c-.9 0-1.3-.4-1.3-1.3v-40.6c0-10.7-5.5-15.8-15-15.8-11.1 0-19.5 8-19.5 24v32.5c0 .9-.4 1.3-1.3 1.3h-7.7c-.9 0-1.3-.4-1.3-1.3v-63.6zM418.2 205.3c-15.4 0-27.8-9.1-27.8-21.5 0-.8.4-1.3 1.3-1.3h8.4c.9 0 1.2.4 1.3 1.3 1.1 7.7 7.3 11.7 17.2 11.7 8.8 0 15.3-2.8 15.3-9.6 0-6.9-5.8-9.2-19.3-11.3-15.8-2.5-22.6-7.7-22.6-19.3 0-12.1 11.1-18.9 25.1-18.9 14.8 0 23.9 7.5 25.5 19 0 .8-.4 1.3-1.3 1.3h-7.4c-.9 0-1.1-.4-1.3-1.3-2-6.5-8.7-9.2-15.8-9.2-8.4 0-14.4 2.9-14.4 8.8 0 6.5 5.3 8.7 18.6 11.1 12.7 2.2 23.7 5.9 23.7 18.5.1 13.3-11 20.7-26.5 20.7zM485 136.4c19 0 33.6 13.5 33.6 34.4s-14.6 34.5-33.6 34.5-33.6-13.5-33.6-34.4 14.6-34.5 33.6-34.5zm0 59.1c13.6 0 22.8-9.9 22.8-24.7 0-14.8-9.2-24.7-22.8-24.7-13.6 0-22.8 9.9-22.8 24.7 0 14.9 9.2 24.7 22.8 24.7zM583.9 202.7c0 .9-.4 1.3-1.3 1.3h-7.6c-.9 0-1.3-.4-1.3-1.3v-7.5c-5.1 6.2-12.5 10.2-21.9 10.2-13.9 0-23-8.6-23-24v-42.2c0-.9.4-1.3 1.3-1.3h7.7c.9 0 1.3.4 1.3 1.3v40.6c0 10.7 5.5 15.8 15 15.8 11.1 0 19.5-8 19.5-24v-32.5c0-.9.4-1.3 1.3-1.3h7.7c.9 0 1.3.4 1.3 1.3v63.6zM639.3 148.8c0 .8-.5 1.5-1.5 1.5-5.4-2.8-8.8-4.1-14.2-4.1-9.5 0-16.1 9-16.1 20.6v35.9c0 .9-.4 1.3-1.3 1.3h-7.7c-.9 0-1.3-.4-1.3-1.3v-63.6c0-.9.4-1.3 1.3-1.3h7.7c.9 0 1.3.4 1.3 1.3v7.3c4-5.4 10.3-9.9 19.3-9.9 4.4 0 7.4.9 10.9 2.1.8.3 1.5 1.1 1.6 2.4v7.8zM653.8 170.9c0 15.7 8.8 24.7 21.9 24.7 9 0 16-4.7 18.7-13.2.4-1.1.9-1.2 1.8-1.2h8c.5 0 .9.3.9.8 0 .3 0 .8-.1 1.3-3.3 13.2-13.3 22-29.4 22-19.9 0-32.7-14.8-32.7-34.4 0-19.7 12.8-34.4 32.7-34.4 16.1 0 26.1 8.8 29.4 22 .1.5.1 1.1.1 1.3 0 .5-.4.8-.9.8h-8c-.9 0-1.5-.1-1.8-1.2-2.8-8.4-9.8-13.2-18.7-13.2-13 0-21.9 9-21.9 24.7zM723.1 174c1.1 12.9 9.2 21.5 22.2 21.5 9.1 0 15.8-3.6 19.4-12.1.4-1.1.9-1.2 1.8-1.2h8.6c.7 0 .9.4.9.9 0 .3 0 .5-.3 1.3-5 14-16.1 20.8-30.7 20.8-20.2 0-33-15-33-34.4s13.9-34.4 33-34.4c20.1 0 32.3 15.8 32.3 34.2v2.1c0 .9-.4 1.3-1.3 1.3h-52.9zm.5-9.7h42.6c-2.1-10.8-10.4-18.1-21.2-18.1-10 0-19 6.1-21.4 18.1zM481.9 270.1c0 15.7 8.8 24.7 21.9 24.7 9 0 16-4.7 18.7-13.2.4-1.1.9-1.2 1.8-1.2h8c.5 0 .9.3.9.8 0 .3 0 .8-.1 1.3-3.3 13.2-13.3 22-29.4 22-19.9 0-32.7-14.8-32.7-34.4s12.8-34.4 32.7-34.4c16.1 0 26.1 8.8 29.4 22 .1.5.1 1.1.1 1.3 0 .5-.4.8-.9.8h-8c-.9 0-1.5-.1-1.8-1.2-2.8-8.4-9.8-13.2-18.7-13.2-13.1 0-21.9 9-21.9 24.7zM573.7 235.7c19 0 33.6 13.5 33.6 34.4s-14.6 34.4-33.6 34.4-33.6-13.5-33.6-34.4 14.6-34.4 33.6-34.4zm0 59.1c13.6 0 22.8-9.9 22.8-24.7 0-14.8-9.2-24.7-22.8-24.7s-22.8 9.9-22.8 24.7c0 14.8 9.2 24.7 22.8 24.7zM615.1 213.3c0-.9.4-1.3 1.3-1.3h11.3c.9 0 1.3.4 1.3 1.3v11.3c0 .9-.4 1.3-1.3 1.3h-11.3c-.9 0-1.3-.4-1.3-1.3v-11.3zm1.9 25c0-.9.4-1.3 1.3-1.3h7.7c.9 0 1.3.4 1.3 1.3v63.6c0 .9-.4 1.3-1.3 1.3h-7.7c-.9 0-1.3-.4-1.3-1.3v-63.6zM639.5 238.3c0-.9.4-1.3 1.3-1.3h7.7c.9 0 1.3.4 1.3 1.3v7.5c5.1-6.2 12.4-10.2 21.9-10.2 13.9 0 23 8.6 23 24v42.2c0 .9-.4 1.3-1.3 1.3h-7.7c-.9 0-1.3-.4-1.3-1.3v-40.6c0-10.7-5.5-15.8-15-15.8-11.1 0-19.5 8-19.5 24v32.5c0 .9-.4 1.3-1.3 1.3h-7.7c-.9 0-1.3-.4-1.3-1.3v-63.6z"/></svg>