<svg width="180" height="59" viewBox="0 0 180 59" xmlns="http://www.w3.org/2000/svg"><path d="M0 57.703v-54.474h20.749c14.952 0 21.893 6.628 21.893 18.209v.305c0 11.428-7.705 17.599-21.207 17.599h-5.874v18.361h-15.562zm15.562-29.027h4.501c5.035 0 7.705-2.362 7.705-6.857v-.305c0-4.647-2.746-6.552-7.628-6.552h-4.577v13.714zm33.153 29.027v-39.813h13.698v39.813h-13.698zm6.811-43.62c-4.285 0-7.5-2.969-7.5-7.004s3.214-7.08 7.5-7.08c4.285 0 7.576 3.045 7.576 7.08s-3.291 7.004-7.576 7.004zm28.01 44.481c-8.961 0-13.973-4.345-13.973-13.721v-35.37h13.593v8.417h7.822v9.192h-7.822v16.465c0 2.897 1.443 4.193 4.025 4.193 1.519 0 2.443-.229 3.658-.686v10.367c-1.747.457-4.113 1.143-7.303 1.143zm31.665 0c-11.865 0-20.916-6.924-20.916-20.315v-.609c0-13.239 9.507-20.847 21.22-20.847 9.736 0 18.71 4.261 19.471 16.358h-12.778c-.608-3.728-2.433-5.782-6.389-5.782-4.791 0-7.606 3.425-7.606 10.12v.607c0 6.696 2.816 10.5 7.606 10.5 3.955 0 5.781-2.283 6.288-6.619h12.891c-.38 10.043-6.934 16.586-19.788 16.586zm24.957-.861v-54.474h13.663v21.084c2.137-4.107 6.488-7.454 13.128-7.454 7.709 0 13.052 4.792 13.052 14.984v25.86h-13.663v-23.122c0-4.488-1.756-6.693-5.725-6.693-4.045 0-6.793 2.434-6.793 7.53v22.285h-13.663z" fill="#383c43"/></svg>