<svg xmlns="http://www.w3.org/2000/svg" viewBox="0 0 200 65"><path d="M102.174 12.899c0-4.145-3.13-6.377-6.841-6.377h-8.957v20.29h4.58v-6.899h3.884c4.754 0 7.333-3.188 7.333-7.014zm-4.783.29c0 1.739-1.13 2.899-2.667 2.899h-3.797v-5.739h3.797c1.536 0 2.667.986 2.667 2.841zm16.725 2.058v-4.464h-1.391c-1.594 0-3.13.696-3.913 2.029v-2.029h-4.319v16.029h4.464v-8.522c0-2.232 1.304-3.072 3.507-3.072.609 0 1.652.029 1.652.029zm9.072 11.768c4.638 0 7.942-2.783 7.942-8.203 0-5.449-3.304-8.232-7.942-8.232-4.609 0-7.913 2.783-7.913 8.232 0 5.42 3.304 8.203 7.913 8.203zm0-12.812c1.942 0 3.391 1.304 3.391 4.609 0 3.275-1.449 4.58-3.391 4.58-1.884 0-3.362-1.304-3.362-4.58 0-3.304 1.478-4.609 3.362-4.609zm18.957 12.551v-3.71s-1.014.087-1.942.087c-.957 0-1.246-.261-1.246-1.246v-7.507h3.391v-3.594h-3.391v-4.261h-4.493v4.261h-2.319v3.594h2.319v7.739c0 2.986.435 4.812 4.174 4.812 2.029 0 3.507-.174 3.507-.174zm9.275.261c4.638 0 7.942-2.783 7.942-8.203 0-5.449-3.304-8.232-7.942-8.232-4.609 0-7.913 2.783-7.913 8.232 0 5.42 3.304 8.203 7.913 8.203zm0-12.812c1.942 0 3.391 1.304 3.391 4.609 0 3.275-1.449 4.58-3.391 4.58-1.884 0-3.362-1.304-3.362-4.58 0-3.304 1.478-4.609 3.362-4.609zm20.29 6.551c-.29 1.913-1.594 2.638-3.014 2.638-1.826 0-3.275-1.304-3.275-4.58 0-3.304 1.42-4.609 3.333-4.609 1.507 0 2.667.754 2.899 2.725h4.493c-.377-4.232-3.391-6.348-7.42-6.348-4.609 0-7.913 2.87-7.913 8.29 0 5.449 3.391 8.145 8 8.145 4.116 0 6.899-2.116 7.362-6.261h-4.464zm13.681 6.261c4.638 0 7.942-2.783 7.942-8.203 0-5.449-3.304-8.232-7.942-8.232-4.609 0-7.913 2.783-7.913 8.232 0 5.42 3.304 8.203 7.913 8.203zm0-12.812c1.942 0 3.391 1.304 3.391 4.609 0 3.275-1.449 4.58-3.391 4.58-1.884 0-3.362-1.304-3.362-4.58 0-3.304 1.478-4.609 3.362-4.609zm14.58 12.609v-21.449h-4.464v21.449h4.464zm-99.217 31.884v-4h-9.797v-16.29h-4.58v20.29h14.377zm12.087-6.145c0 1.362-.928 3.101-3.565 3.101-1.71 0-2.174-1.072-2.174-1.797 0-1.014.783-1.652 1.855-1.855 1.101-.232 3.884-.58 3.884-.58v1.13zm-9.797-4.638h4.319c0-.638.174-1.971 2.812-1.971 2.145 0 2.667.754 2.667 1.855v.551l-5.275.754c-1.478.203-5.043 1.101-5.043 4.754 0 3.217 2.464 5.043 5.768 5.043 2.754 0 3.971-.928 4.667-1.652v1.449h4.725s-.348-1.217-.348-2.377v-8.638c0-2.319-1.275-5.217-7.159-5.217-6.087 0-7.072 3.101-7.13 5.449zm21.652 10.783v-1.565c.812 1.014 2.232 1.768 4 1.768 4.348 0 7.333-2.783 7.333-8.203 0-5.449-3.043-8.232-7.072-8.232-1.768 0-3.449.754-4.261 1.768v-6.986h-4.464v21.449h4.464zm3.391-12.609c1.942 0 3.391 1.304 3.391 4.609 0 3.275-1.449 4.58-3.391 4.58-2.174 0-3.362-1.014-3.362-4.58 0-3.594 1.188-4.609 3.362-4.609zm19.101 1.333h4.377c0-1.246-.638-4.957-6.899-4.957-3.826 0-6.87 1.71-6.87 5.014 0 3.739 3.014 4.522 6.464 4.986l.87.116c1.246.174 2.406.435 2.406 1.42 0 1.159-1.246 1.623-2.667 1.623-1.536 0-2.899-.464-2.899-2h-4.493c0 .841.377 5.275 7.13 5.275 6 0 7.449-2.928 7.449-5.391 0-6.464-9.797-3.884-9.797-6.348 0-1.101 1.217-1.449 2.348-1.449 1.536 0 2.58.609 2.58 1.71zm-116.832.171c.687.397 1.245 1.367 1.245 2.157v13.652c0 .794-.561 1.114-1.245.72l-11.814-6.819c-.687-.397-1.245-1.367-1.245-2.157v-13.652c0-.794.561-1.114 1.245-.72l11.814 6.819zm18.223-12.043c0 .794-.561 1.761-1.245 2.157l-11.819 6.822c-.687.397-1.245.071-1.245-.719v-13.648c0-.794.561-1.761 1.245-2.157l11.819-6.822c.687-.397 1.245-.071 1.245.719l-.001 13.649.001-.001zm-2.596-18.12c.699.403.704 1.054.02 1.449l-11.825 6.825c-.688.397-1.814.39-2.51-.012l-28.751-16.596c-.699-.403-.704-1.054-.019-1.449l11.826-6.826c.688-.397 1.814-.39 2.51.012l28.749 16.599-.001-.001zm-31.355 36.168c0 .796-.561 1.117-1.243.722l-11.813-6.819c-.687-.397-1.243-1.375-1.243-2.178v-33.196c0-.807.57-1.132 1.265-.73l28.743 16.591c.699.403 1.265 1.378 1.265 2.168v13.651c0 .794-.565 1.112-1.248.717l-14.477-8.355c-.69-.397-1.248-.068-1.248.72v16.707l-.001.001zm36.61-33.229c0-.796.561-1.764 1.245-2.159l11.817-6.822c.687-.397 1.245-.061 1.245.742v33.196c0 .807-.57 1.79-1.265 2.19l-28.743 16.591c-.699.403-1.265.083-1.265-.707v-13.652c0-.794.564-1.764 1.248-2.158l14.47-8.352c.688-.397 1.248-1.372 1.248-2.161l.001-16.709v.001zm-14.397-11.29c-.688-.397-.684-1.042 0-1.438l11.823-6.823c.687-.397 1.806-.394 2.49 0l11.823 6.825c.687.397.684 1.042 0 1.438l-11.822 6.825c-.687.397-1.806.394-2.49 0l-11.823-6.826h-.001z" fill="#252A2E"/></svg>