<svg xmlns="http://www.w3.org/2000/svg" viewBox="0 0 396 48"><g fill="none"><path fill="#000" d="M192.942 1.632v44.637h10.324v-20.511h.172l16.458 20.511h13.953l-20.216-24.126 19.179-20.511h-13.391l-15.983 18.116h-.172v-18.116zm53.261 44.637l-.346-29.265h.346l17.84 29.265h12.052v-44.637h-10.367l.173 29.09h-.173l-17.624-29.09h-12.225v44.637zm76.89-39.498c-2.203-2.047-4.752-3.571-7.646-4.616-2.894-1.045-6.091-1.698-9.676-1.698-3.413 0-6.609.523-9.676 1.698-2.894 1.045-5.443 2.569-7.646 4.616-2.203 2.047-3.888 4.442-5.097 7.36-1.21 2.918-1.857 6.14-1.857 9.755 0 3.615.691 6.837 1.857 9.755 1.166 2.918 2.894 5.487 5.097 7.534 2.203 2.047 4.752 3.745 7.646 4.79 2.894 1.176 6.091 1.698 9.676 1.698 3.413 0 6.609-.523 9.676-1.698 2.894-1.176 5.616-2.744 7.646-4.79 2.203-2.047 3.888-4.616 5.097-7.534 1.21-2.918 1.857-6.14 1.857-9.755 0-3.615-.691-6.837-1.857-9.755-1.382-2.918-3.067-5.313-5.097-7.36zm-5.616 22.558c-.691 1.698-1.512 3.266-2.549 4.442-1.166 1.176-2.549 2.221-4.06 2.918-1.512.697-3.24 1.045-5.097 1.045-1.857 0-3.542-.348-5.097-1.045-1.512-.697-2.894-1.698-3.888-2.918-1.166-1.176-2.03-2.744-2.549-4.442-.691-1.698-1.037-3.571-1.037-5.661 0-1.873.346-3.745.864-5.487.691-1.698 1.512-3.092 2.549-4.268 1.166-1.176 2.549-2.221 4.06-2.918 1.512-.697 3.24-1.045 5.097-1.045 1.857 0 3.542.348 5.097 1.045 1.512.697 2.894 1.698 4.06 2.918 1.166 1.219 2.03 2.569 2.549 4.268.691 1.698 1.037 3.44 1.037 5.487s-.346 3.963-1.037 5.661zm32.095 2.046h-.172l-7.128-29.743h-11.361l12.527 44.637h10.54l8.812-30.266h.173l8.812 30.266h10.54l12.743-44.637h-11.231l-7.127 29.743h-.173l-7.948-29.743h-11.188zm-325.054-5.966c-1.166-1.045-2.721-1.698-4.233-2.221l-4.579-1.698c-1.166-.348-2.376-.871-3.542-1.176-1.166-.305-2.203-1.045-3.067-1.524-.864-.697-1.685-1.35-2.203-2.395-.518-1.045-.864-2.221-.864-3.571s.346-2.744.864-3.745c.518-1.045 1.339-1.873 2.203-2.569.864-.697 1.857-1.176 3.067-1.524 1.21-.348 2.203-.523 3.413-.523 2.203 0 3.888.348 5.443 1.176 1.512.871 2.721 1.873 3.715 3.266l3.542-2.918c-1.037-1.524-2.721-2.744-4.752-3.745-2.203-1.045-4.752-1.698-7.819-1.698-1.685 0-3.24.348-4.924.697-1.685.523-3.24 1.176-4.579 2.221-1.339 1.045-2.549 2.395-3.413 3.919-.864 1.524-1.166 3.44-1.166 5.487s.346 3.745 1.037 5.139c.691 1.35 1.512 2.569 2.721 3.44 1.166 1.045 2.376 1.698 3.888 2.221 1.339.871 2.721 1.35 4.233 1.698 1.339.523 2.721.871 4.06 1.35 1.339.523 2.376 1.045 3.413 1.698 1.037.697 1.857 1.524 2.376 2.569.691 1.045.864 2.395.864 3.919 0 1.35-.346 2.744-.864 3.745-.691 1.045-1.339 2.047-2.376 2.744-1.037.697-2.03 1.35-3.24 1.698-1.21.348-2.376.523-3.413.523-2.376 0-4.406-.523-6.091-1.524-1.685-1.002-3.067-2.395-4.06-3.919l-3.715 2.744c.864 1.045 1.685 2.047 2.721 2.918 1.037.871 2.203 1.524 3.413 2.047 1.166.523 2.549 1.045 3.715 1.176 1.339.348 2.721.348 4.06.348 1.685 0 3.542-.174 5.27-.697 1.685-.523 3.24-1.176 4.579-2.395 1.339-1.045 2.376-2.395 3.24-3.919.864-1.524 1.166-3.571 1.166-5.835 0-2.221-.346-4.094-1.166-5.487-.734-1.437-1.728-2.656-2.937-3.658zm39.87-11.802c0-2.047-.346-3.745-1.037-5.313-.691-1.568-1.685-2.744-3.067-3.745-1.339-1.045-2.894-1.698-4.752-2.221-1.857-.523-3.888-.697-6.091-.697h-12.57v44.637h4.579v-20.685h7.819c2.203 0 4.233-.174 6.091-.697 1.857-.523 3.413-1.176 4.752-2.221 1.339-1.045 2.376-2.221 3.067-3.745.907-1.568 1.21-3.266 1.21-5.313zm-7.3 5.966c-1.857 1.35-4.579 2.047-8.164 2.047h-7.646v-16.069h7.646c3.413 0 6.091.697 7.991 1.873 2.03 1.35 2.894 3.266 2.894 6.14 0 2.613-.821 4.66-2.721 6.01zm24.622-17.942l-19.006 44.637h4.924l4.752-11.802h22.894l4.924 11.802h5.097l-19.179-44.637h-4.406zm-7.646 28.742l9.849-23.777 9.849 23.777h-19.698zm62.981 11.453c-2.376 1.045-4.752 1.524-7.3 1.524-2.894 0-5.443-.523-7.646-1.524-2.203-1.045-4.233-2.395-5.788-4.268-1.512-1.698-2.894-3.745-3.715-6.14-.864-2.395-1.339-4.79-1.339-7.36 0-2.569.346-5.139 1.166-7.36.864-2.395 2.03-4.442 3.542-6.14 1.512-1.698 3.542-3.266 5.788-4.268 2.203-1.045 4.924-1.524 7.819-1.524 1.339 0 2.721.174 3.888.523 1.166.348 2.376.871 3.413 1.35 1.037.523 1.857 1.176 2.721 1.873 1.037.523 1.685 1.176 2.203 1.873l3.715-2.744c-.691-1.045-1.685-2.047-2.894-2.918-1.166-.871-2.376-1.524-3.715-2.221-1.339-.697-2.894-1.045-4.406-1.35-1.512-.523-3.067-.697-4.752-.697-3.24 0-6.263.523-9.158 1.698-2.894 1.176-5.27 2.744-7.3 4.965-2.03 2.047-3.715 4.616-4.924 7.36-1.166 2.918-1.685 5.966-1.685 9.406 0 3.44.518 6.489 1.685 9.406 1.166 2.918 2.721 5.313 4.752 7.36 2.03 2.047 4.406 3.745 7.3 4.965 2.894 1.219 5.918 1.698 9.33 1.698 2.03 0 3.888-.174 5.616-.697 1.728-.523 3.24-1.045 4.579-1.873 1.339-.697 2.549-1.698 3.715-2.744 1.037-1.045 2.03-2.047 2.721-3.266l-3.542-2.221c-1.555 2.569-3.413 4.268-5.788 5.313zm42.938-36.101v-4.093h-27.516v44.637h28.336v-3.919h-23.758v-17.289h21.383v-4.094h-21.383v-15.242z"/><path d="M-2-3h399.814v53.768h-399.814z"/></g></svg>