<svg xmlns="http://www.w3.org/2000/svg" width="322.89" height="112" viewBox="0 0 322.89 112"><title>Asset 1</title><g><g fill="#333"><path d="M134.06 39.28a7.5 7.5 0 0 0 3.19 2.72 9.56 9.56 0 0 0 4 .89 8.19 8.19 0 0 0 2.35-.36 7.06 7.06 0 0 0 2.18-1.08 5.84 5.84 0 0 0 1.61-1.78 4.67 4.67 0 0 0 .62-2.45 3.68 3.68 0 0 0-1.24-3 11 11 0 0 0-3.1-1.72c-1.23-.47-2.58-.92-4-1.35a16.37 16.37 0 0 1-4-1.8 9.9 9.9 0 0 1-3.09-3.09 9.68 9.68 0 0 1-1.31-5.26 8.89 8.89 0 0 1 .65-3.17 8.78 8.78 0 0 1 2-3.07 11.33 11.33 0 0 1 3.58-2.33 13.32 13.32 0 0 1 5.25-.93 18.41 18.41 0 0 1 5.33.76 9.23 9.23 0 0 1 4.46 3.12l-3.74 3.41a6.31 6.31 0 0 0-2.45-2.16 7.76 7.76 0 0 0-3.6-.81 8.65 8.65 0 0 0-3.19.5 5.73 5.73 0 0 0-2 1.3 4.54 4.54 0 0 0-1.08 1.7 5.18 5.18 0 0 0-.31 1.68 4.25 4.25 0 0 0 1.25 3.31 9.62 9.62 0 0 0 3.09 1.87 36.73 36.73 0 0 0 4 1.3 17.13 17.13 0 0 1 4 1.61 9.34 9.34 0 0 1 3.09 2.78 8.22 8.22 0 0 1 1.25 4.83 10 10 0 0 1-.94 4.41 9.66 9.66 0 0 1-2.52 3.31 11 11 0 0 1-3.74 2.07 14.5 14.5 0 0 1-4.61.72 16.93 16.93 0 0 1-6.19-1.15 10.27 10.27 0 0 1-4.66-3.56zM170.82 27.38h-6.19v10.32c0 .64 0 1.27.05 1.89a4.82 4.82 0 0 0 .36 1.68 2.71 2.71 0 0 0 1 1.2 3.23 3.23 0 0 0 1.9.46 8.78 8.78 0 0 0 1.58-.15 4.63 4.63 0 0 0 1.49-.52v3.93a5.64 5.64 0 0 1-2 .6 15.5 15.5 0 0 1-1.9.17 8.63 8.63 0 0 1-3.87-.7 4.68 4.68 0 0 1-2-1.8 5.83 5.83 0 0 1-.77-2.47q-.12-1.37-.12-2.76v-11.85h-5v-3.75h5v-6.38h4.32v6.38h6.19zM177.45 26.42a12 12 0 0 1 4.22-2.52 14.45 14.45 0 0 1 4.8-.84 13.06 13.06 0 0 1 4.3.62 8.49 8.49 0 0 1 2.95 1.68 6.47 6.47 0 0 1 1.7 2.42 7.59 7.59 0 0 1 .56 2.86v13.82s.08 1.32.15 1.92h-3.84q-.15-1.73-.15-3.45h-.09a8.32 8.32 0 0 1-3.41 3.12 10.7 10.7 0 0 1-4.56.91 10.35 10.35 0 0 1-3-.43 7.35 7.35 0 0 1-2.52-1.3 6.25 6.25 0 0 1-1.71-2.13 6.75 6.75 0 0 1-.62-3 6.51 6.51 0 0 1 1-3.69 7.54 7.54 0 0 1 2.69-2.41 13 13 0 0 1 4-1.34 27.92 27.92 0 0 1 4.88-.41h3.16v-1a4.69 4.69 0 0 0-3-4.39 6.41 6.41 0 0 0-2.4-.41 8.81 8.81 0 0 0-2.18.24 9.51 9.51 0 0 0-1.71.6 7.66 7.66 0 0 0-1.39.84l-1.2.91zm12.19 9a30.63 30.63 0 0 0-3.14.17 12.12 12.12 0 0 0-2.93.65 5.59 5.59 0 0 0-2.16 1.34 3 3 0 0 0-.84 2.21 3.13 3.13 0 0 0 1.32 2.83 6.42 6.42 0 0 0 3.57.86 6.94 6.94 0 0 0 3-.6 5.66 5.66 0 0 0 2-1.56 6 6 0 0 0 1.11-2.13 8.62 8.62 0 0 0 .33-2.33v-1.42zM202.26 23.63h4.32v3.51h.1a6.4 6.4 0 0 1 2.83-3 9.42 9.42 0 0 1 4.66-1.12 9.78 9.78 0 0 1 3.14.5 7.17 7.17 0 0 1 2.69 1.6 7.56 7.56 0 0 1 1.8 2.71 10.36 10.36 0 0 1 .67 3.91v14.64h-4.37v-13.44a7.55 7.55 0 0 0-.43-2.71 4.94 4.94 0 0 0-1.15-1.82 4.25 4.25 0 0 0-1.66-1 6 6 0 0 0-1.94-.31 7 7 0 0 0-2.5.43 5.16 5.16 0 0 0-2 1.37 6.35 6.35 0 0 0-1.35 2.37 10.83 10.83 0 0 0-.48 3.41v11.7h-4.32zM251.75 46.38h-4.32v-3.26h-.09a8.23 8.23 0 0 1-3.44 2.88 10.61 10.61 0 0 1-4.49 1 12 12 0 0 1-4.77-.91 10.54 10.54 0 0 1-3.64-2.59 11.47 11.47 0 0 1-2.33-3.79 13.3 13.3 0 0 1-.81-4.7 13.5 13.5 0 0 1 .81-4.73 11.18 11.18 0 0 1 2.33-3.79 10.74 10.74 0 0 1 3.64-2.49 12 12 0 0 1 4.77-.91 10.51 10.51 0 0 1 4.61 1 7.89 7.89 0 0 1 3.32 2.81h.09v-16.8h4.32zm-11.81-3.45a7.79 7.79 0 0 0 3.12-.6 6.87 6.87 0 0 0 2.35-1.63 7 7 0 0 0 1.49-2.5 9.87 9.87 0 0 0 0-6.38 7 7 0 0 0-1.49-2.5 6.74 6.74 0 0 0-2.35-1.63 8.41 8.41 0 0 0-6.24 0 6.83 6.83 0 0 0-2.35 1.63 7.17 7.17 0 0 0-1.49 2.5 9.87 9.87 0 0 0 0 6.38 7.17 7.17 0 0 0 1.49 2.5 7 7 0 0 0 2.35 1.63 7.82 7.82 0 0 0 3.12.6zM258.37 26.42a12.09 12.09 0 0 1 4.23-2.52 14.45 14.45 0 0 1 4.8-.84 13 13 0 0 1 4.29.62 8.54 8.54 0 0 1 3 1.68 6.71 6.71 0 0 1 1.7 2.42 7.58 7.58 0 0 1 .55 2.86v11.62c0 .8 0 1.53.05 2.2s.08 1.32.14 1.92h-3.84c-.09-1.15-.14-2.3-.14-3.45h-.15a8.3 8.3 0 0 1-3.4 3.12 10.76 10.76 0 0 1-4.56.91 10.42 10.42 0 0 1-3-.43 7.35 7.35 0 0 1-2.52-1.3 6.1 6.1 0 0 1-1.7-2.13 6.61 6.61 0 0 1-.63-3 6.51 6.51 0 0 1 1-3.69 7.46 7.46 0 0 1 2.66-2.41 13 13 0 0 1 4-1.34 27.8 27.8 0 0 1 4.87-.41h3.17v-1a4.67 4.67 0 0 0-.34-1.73 4.62 4.62 0 0 0-2.68-2.66 6.48 6.48 0 0 0-2.4-.41 8.89 8.89 0 0 0-2.19.24 9.68 9.68 0 0 0-1.7.6 7.33 7.33 0 0 0-1.39.84l-1.2.91zm12.2 9a30.82 30.82 0 0 0-3.15.17 12.23 12.23 0 0 0-2.93.65 5.59 5.59 0 0 0-2.16 1.34 3 3 0 0 0-.84 2.21 3.13 3.13 0 0 0 1.32 2.83 6.45 6.45 0 0 0 3.58.86 6.92 6.92 0 0 0 3-.6 5.61 5.61 0 0 0 2-1.56 6 6 0 0 0 1.1-2.13 8.26 8.26 0 0 0 .34-2.33v-1.42zM283.19 23.63h4.32v3.51h.1a6 6 0 0 1 1.15-1.66 7.33 7.33 0 0 1 1.61-1.27 8.68 8.68 0 0 1 1.94-.84 7.33 7.33 0 0 1 2.11-.31 6.06 6.06 0 0 1 1.92.28l-.19 4.66a9.56 9.56 0 0 0-1.06-.24 6.22 6.22 0 0 0-1-.1 6.38 6.38 0 0 0-4.85 1.78q-1.68 1.77-1.68 5.52v11.42h-4.32zM322.89 46.38h-4.32v-3.26h-.1a8.2 8.2 0 0 1-3.47 2.88 10.64 10.64 0 0 1-4.49 1 12 12 0 0 1-4.77-.91 10.45 10.45 0 0 1-3.65-2.55 11.31 11.31 0 0 1-2.33-3.79 13.08 13.08 0 0 1-.76-4.75 13.28 13.28 0 0 1 .82-4.73 11 11 0 0 1 2.33-3.79 10.64 10.64 0 0 1 3.63-2.48 12 12 0 0 1 4.77-.91 10.54 10.54 0 0 1 4.61 1 7.86 7.86 0 0 1 3.31 2.81h.1v-16.8h4.32zm-11.81-3.45a7.82 7.82 0 0 0 3.12-.6 7 7 0 0 0 2.35-1.63 7.17 7.17 0 0 0 1.45-2.5 9.87 9.87 0 0 0 0-6.38 7.17 7.17 0 0 0-1.49-2.5 6.83 6.83 0 0 0-2.35-1.63 8.41 8.41 0 0 0-6.24 0 6.83 6.83 0 0 0-2.35 1.63 7.17 7.17 0 0 0-1.49 2.5 9.87 9.87 0 0 0 0 6.38 7.17 7.17 0 0 0 1.49 2.5 7 7 0 0 0 2.43 1.63 7.82 7.82 0 0 0 3.08.6zM133.05 64.4h4.61v29.66h15.6v4.32h-20.21zM157.14 67.47a3.15 3.15 0 0 1 5.4-2.23 3.15 3.15 0 1 1-5.4 2.23zm1 8.16h4.32v22.75h-4.32zM168.37 62.1h4.33v16.8h.09a7.86 7.86 0 0 1 3.31-2.81 10.54 10.54 0 0 1 4.61-1 12.05 12.05 0 0 1 4.78.91 10.84 10.84 0 0 1 3.65 2.52 11.15 11.15 0 0 1 2.32 3.79 13.28 13.28 0 0 1 .82 4.73 13.08 13.08 0 0 1-.82 4.7 11.45 11.45 0 0 1-2.32 3.79 10.63 10.63 0 0 1-3.65 2.55 12.05 12.05 0 0 1-4.78.91 10.68 10.68 0 0 1-4.49-1 8.2 8.2 0 0 1-3.43-2.83h-.09v3.26h-4.33zm11.81 32.83a7.82 7.82 0 0 0 3.12-.6 7.11 7.11 0 0 0 2.36-1.63 7.31 7.31 0 0 0 1.48-2.5 9.87 9.87 0 0 0 0-6.38 7.31 7.31 0 0 0-1.48-2.5 7 7 0 0 0-2.36-1.63 8.41 8.41 0 0 0-6.24 0 6.83 6.83 0 0 0-2.35 1.63 7.17 7.17 0 0 0-1.49 2.5 10 10 0 0 0 0 6.38 7.17 7.17 0 0 0 1.49 2.5 7 7 0 0 0 2.35 1.63 7.82 7.82 0 0 0 3.12.6zM197.7 75.63h4.3v3.51h.1a6.25 6.25 0 0 1 1.15-1.66 7.57 7.57 0 0 1 1.61-1.27 8.68 8.68 0 0 1 1.94-.84 7.39 7.39 0 0 1 2.11-.31 6.06 6.06 0 0 1 1.92.28l-.17 4.66a9.92 9.92 0 0 0-1-.24 7.12 7.12 0 0 0-5.91 1.68q-1.75 1.77-1.75 5.56v11.38h-4.3zM215.56 78.42a12 12 0 0 1 4.22-2.52 14.45 14.45 0 0 1 4.8-.84 13.06 13.06 0 0 1 4.3.62 8.49 8.49 0 0 1 3 1.68 6.47 6.47 0 0 1 1.7 2.42 7.59 7.59 0 0 1 .56 2.86v13.82s.08 1.32.15 1.92h-3.84q-.15-1.72-.15-3.45h-.09a8.32 8.32 0 0 1-3.41 3.12 10.7 10.7 0 0 1-4.56.91 10.35 10.35 0 0 1-3-.43 7.35 7.35 0 0 1-2.52-1.3 6.25 6.25 0 0 1-1.72-2.13 6.75 6.75 0 0 1-.62-3 6.59 6.59 0 0 1 1-3.69 7.54 7.54 0 0 1 2.62-2.41 13 13 0 0 1 4-1.34 27.92 27.92 0 0 1 4.88-.41h3.16v-1a4.69 4.69 0 0 0-3-4.39 6.41 6.41 0 0 0-2.4-.41 8.81 8.81 0 0 0-2.18.24 9.51 9.51 0 0 0-1.71.6 7.66 7.66 0 0 0-1.39.84l-1.2.91zm12.19 9a30.78 30.78 0 0 0-3.14.17 12.12 12.12 0 0 0-2.93.65 5.59 5.59 0 0 0-2.16 1.34 3 3 0 0 0-.84 2.21 3.13 3.13 0 0 0 1.32 2.85 6.42 6.42 0 0 0 3.57.86 6.94 6.94 0 0 0 3-.6 5.66 5.66 0 0 0 2-1.56 6 6 0 0 0 1.11-2.13 8.62 8.62 0 0 0 .33-2.33v-1.44zM240.37 75.63h4.32v3.51h.1a6.25 6.25 0 0 1 1.15-1.66 7.57 7.57 0 0 1 1.61-1.27 8.68 8.68 0 0 1 1.94-.84 7.4 7.4 0 0 1 2.12-.31 6.14 6.14 0 0 1 1.92.28l-.2 4.66a9.92 9.92 0 0 0-1.05-.24 7.12 7.12 0 0 0-5.91 1.68q-1.68 1.77-1.68 5.52v11.42h-4.32zM258.33 75.63h5l6.74 17.76h.09l6.46-17.76h4.61l-10.8 27.65a29.22 29.22 0 0 1-1.19 2.71 8.19 8.19 0 0 1-1.49 2.09 5.83 5.83 0 0 1-2.08 1.34 8.13 8.13 0 0 1-3 .48 15.91 15.91 0 0 1-1.94-.12 7 7 0 0 1-1.89-.5l.53-3.94a6.61 6.61 0 0 0 2.57.53 4.94 4.94 0 0 0 1.7-.26 3.39 3.39 0 0 0 1.19-.77 4.55 4.55 0 0 0 .83-1.18 15.14 15.14 0 0 0 .67-1.53l1.4-3.6z"/></g><path d="M72.4 6.79l4.48 4.48-44.74 44.73-20.87-20.88 28.33-28.33a23.21 23.21 0 0 1 32.8 0z" fill="#f9aa3f"/><path d="M79.86 56l20.87 20.88-28.33 28.33a23.21 23.21 0 0 1-32.8 0l-4.48-4.48z" fill="#986eb0"/><path d="M82.84 17.23l22.37 22.37a23.21 23.21 0 0 1 0 32.8l-4.48 4.48-38.73-38.77z" fill="#4dbc88"/><path d="M11.27 35.12l38.73 38.77-20.84 20.88-22.37-22.37a23.21 23.21 0 0 1 0-32.8z" fill="#ed4d41"/><path fill="#ee8229" d="M11.27 35.13l29.82 11.92-8.95 8.95-20.87-20.87z"/><path fill="#7650a0" d="M100.73 76.88l-29.82-11.93 8.95-8.95 20.87 20.88z"/></g></svg>