<svg xmlns="http://www.w3.org/2000/svg" viewBox="0 0 3114 1200"><defs><style>.c360c998-ae9e-4e02-a012-04abebc48146{filter:url(#6926a465-ce84-4a50-9b9b-e6280ba98af7);}.\30 aa0f754-74a3-4357-9ade-c87e7d8f225e{fill:none;}.\34 3ee747d-763b-435c-83ef-a6e9961d1b3b{fill:#2935ff;}.ee063ad4-d474-41eb-ad71-7bbf50f070e8{mask:url(#8c13a660-198c-4e73-b5f0-877060b51db4);}.abdd5c0b-ac50-46b9-8f0b-db57a92dd2f7{fill:#ffb6d5;}.\35 44c0f26-f493-448c-ab36-448a07d2bbdd{fill:#ffce00;}.\31 4b9141d-3bcc-49bf-8676-914f1537f9eb{fill:#ff1c3f;}</style><filter id="6926a465-ce84-4a50-9b9b-e6280ba98af7" x="204.94" y="194.42" width="812.63" height="812.72" filterUnits="userSpaceOnUse" color-interpolation-filters="sRGB"><feFlood flood-color="#fff" result="bg"/><feBlend in="SourceGraphic" in2="bg"/></filter><mask id="8c13a660-198c-4e73-b5f0-877060b51db4" x="204.94" y="194.42" width="812.63" height="812.72" maskUnits="userSpaceOnUse"><path class="c360c998-ae9e-4e02-a012-04abebc48146" d="M437.28 1006.83l116.05-116.06h-232.11zm0-464.24l-232.12 232.12h232.12zm580.29 116.06l-232.12-232.12v232.12zm-464.24-464.23l-116.05 116.06h232.11zm0 464.23l116.06 116.06v-232.12l116.06-116.06h-232.12z"/></mask></defs><title>logo-01</title><g id="e3ac6ecb-0008-4ab3-98a5-df85ee25bec8"><path class="0aa0f754-74a3-4357-9ade-c87e7d8f225e" d="M11.25 1200.77v-1200h3092.16v1200z"/><path class="43ee747d-763b-435c-83ef-a6e9961d1b3b" d="M1338 411.83h-73.58v96.85h-60.42v61.63h60.37v248.39h73.63v-248.39h59.74v-61.63h-59.74zm242.73 87.42c-94.33 0-156 67.28-156 164.76 0 98.1 62.89 162.86 154.69 162.86 64.16 0 118.24-32.06 141.5-86.78l-62.24-24.53c-13.85 28.94-40.25 47.17-79.26 47.17-41.49 0-79.23-20.75-84.26-71.69h237.71v-27.66c0-99.38-60.37-164.13-152.18-164.13zm-84.27 139.6c6.29-50.31 37.1-77.35 82.37-77.35 44.66 0 75.48 25.15 78.63 77.35zm465.06-130.17l-66.65 106.9c-23.28-37.1-47.18-74.83-70.43-106.9h-88.06l111.31 157.83-108.2 152.19h84.28l65.39-103.14c20.12 32.08 46.54 73.58 67.91 103.14h87.42l-107.49-152.82 110-157.2zm388.55-154.68c-26.41 0-46.53 20.75-46.53 47.16s20.12 47.17 46.53 47.17a47.17 47.17 0 0 0 0-94.33zm-149.67 57.83h-73v96.85h-60.37v61.63h60.37v248.39h73v-248.39h111.94v248.39h74.19v-310h-186.13zm267.87 406.87h74.21v-467.24h-74.21zm441.45-155.32c0-99.36-60.37-164.13-152.18-164.13-94.32 0-155.95 67.28-155.95 164.76 0 98.1 62.89 162.86 154.69 162.86 64.15 0 118.23-32.06 141.49-86.78l-62.24-24.53c-13.85 28.94-40.25 47.17-79.25 47.17-41.49 0-79.28-20.73-84.28-71.73h237.7zm-236.44-24.53c6.28-50.31 37.1-77.35 82.37-77.35 44.65 0 75.47 25.15 78.62 77.35z"/></g><g id="c1014ada-e78c-4e40-b855-7b9dbece6076"><path class="abdd5c0b-ac50-46b9-8f0b-db57a92dd2f7" d="M204.94 194.72h812.41v812.41h-812.41z"/><path class="544c0f26-f493-448c-ab36-448a07d2bbdd" d="M437.28 774.71h232.11l-232.11-232.12zm348.17-116.06v232.12l232.12-232.12zm-232.12-348.17l-116.05 116h116.05z"/><path class="abdd5c0b-ac50-46b9-8f0b-db57a92dd2f7" d="M321.22 774.71v116.06h116.06v-116.06zm116.06 116.06h116.05l116.06-116.06h-116.06zm348.17-348.18h-116.06v116.06h116.06zm0 348.18v-116.06l-116.06-116.06v116.06zm-116.06-464.24v-116h-116.06v116zm-116.06-116h-116.05l-116.06 116h116.06z"/><path class="14b9141d-3bcc-49bf-8676-914f1537f9eb" d="M437.28 890.77l116.05-116.06h-116.05zm-116.06 0v-116.06h-116.06zm464.23-116.06v-116.06h-116.06zm-116.06-232.12h116.06v-116.06zm0-116.06h116.06l-116.06-116zm-116.06 232.12v-232.12h-232.11z"/></g></svg>