<svg width="140" height="21" viewBox="0 0 140 21" xmlns="http://www.w3.org/2000/svg"><title>VCTR logo</title><path d="M130.009 20.74h2.685v-7.848c0-.283.03-.528.095-.762.063-.233.16-.457.303-.694l2.678-4.43c1.27-2.107 2.544-4.213 3.817-6.319l.416-.687h-3.42l-.145.242-5.087 8.42c-1.696-2.808-3.39-5.615-5.088-8.422l-.146-.24h-3.417l.415.687a9876.537 9876.537 0 0 1 4.869 8.061l.838 1.388c.28.462.56.924.835 1.39a2.06 2.06 0 0 1 .132.259 2.391 2.391 0 0 1 .165.522 2.753 2.753 0 0 1 .055.585v7.848zm-9.945-.002h-3.117l-.11-.27c-.685-1.716-1.366-3.434-2.048-5.152l-.746-1.88c-.397-.998-1.303-1.637-2.32-1.637h-6.54v8.94h-2.683v-20.739h10.451c.48 0 .96.01 1.436.067.248.03.494.072.736.13a5.305 5.305 0 0 1 1.953.908c.207.155.405.326.586.512.37.374.684.807.938 1.277.263.489.46 1.018.595 1.564a7.681 7.681 0 0 1 .082 3.251 7.57 7.57 0 0 1-.195.781l-.188.525a5.694 5.694 0 0 1-.363.744 4.932 4.932 0 0 1-.71.938 4.242 4.242 0 0 1-.821.649c-.178.11-.361.208-.549.299l1.861 4.687 1.752 4.406zm-14.878-12h7.8c.408 0 .817 0 1.225-.036 1.558 0 2.183-1.05 2.293-2.422.129-1.61-.379-3.029-2.135-3.17-.38-.04-.762-.05-1.142-.05l-8.041.002v5.675zm-8.278 12.001h2.84l-8.198-20.739h-1.704c-.298 0-.596.003-.894.023a5.363 5.363 0 0 0-.846.116c-.282.065-.558.16-.82.289a3.815 3.815 0 0 0-.787.521 4.536 4.536 0 0 0-.662.704 6.114 6.114 0 0 0-.504.787 9.991 9.991 0 0 0-.392.812c-.112.26-.216.522-.32.786l-6.621 16.7h3.118l.108-.271c1.003-2.53 2.005-5.06 3.01-7.591a4461.359 4461.359 0 0 1 3.093-7.81l.186-.453a13.163 13.163 0 0 1 .187-.416 5.362 5.362 0 0 1 .212-.395l.18-.259.003-.003.003-.004a1.25 1.25 0 0 1 .198-.201l.015-.013.015-.013.056-.04.071-.04.014-.006a1.834 1.834 0 0 1 .124-.053.671.671 0 0 1 .119-.032l.025-.004.025-.008.149-.026.009-.001.008-.002.218-.023.31-.01h.186c1.233 3.115 2.464 6.232 3.696 9.348 1.062 2.686 2.122 5.37 3.185 8.054l.108.273h.277zm-27.856 0h2.684v-17.676h6.752v-3.063h-16.188v3.063h6.752zm-16.972-20.739c-.682 0-1.364.047-2.037.16a9 9 0 0 0-1.791.487 7.329 7.329 0 0 0-1.538.82 6.914 6.914 0 0 0-1.27 1.153 7.683 7.683 0 0 0-.986 1.473 9.78 9.78 0 0 0-.7 1.777c-.195.675-.329 1.37-.417 2.07a19.23 19.23 0 0 0-.14 2.359l-.001.113c0 .748.039 1.558.135 2.352.086.711.217 1.409.41 2.09.175.618.402 1.223.692 1.793.27.53.595 1.031.976 1.478.373.438.8.824 1.262 1.15.48.336 1 .607 1.54.817a9.09 9.09 0 0 0 1.793.486 11.26 11.26 0 0 0 1.529.152l.422.006c.77.005 1.328.003 1.918.003h5.484v-.517l.004-2.027.003-.52h-3.66c-1.203 0-2.365.002-3.77-.002l-.313-.004a10.278 10.278 0 0 1-.42-.023 8.13 8.13 0 0 1-.76-.092 6.351 6.351 0 0 1-1.251-.338 5.168 5.168 0 0 1-.502-.228 4.386 4.386 0 0 1-.434-.27l-.003-.001-.002-.002a3.142 3.142 0 0 1-.373-.3 3.746 3.746 0 0 1-.642-.752l-.002-.003-.002-.004a5.515 5.515 0 0 1-.276-.467 6.967 6.967 0 0 1-.464-1.214 10.38 10.38 0 0 1-.178-.747 11.89 11.89 0 0 1-.137-.846c-.037-.307-.058-.63-.08-.949a22.35 22.35 0 0 1-.027-1.163 16.894 16.894 0 0 1 .112-1.946c.072-.535.17-1.066.318-1.583.12-.416.272-.822.468-1.203a4.241 4.241 0 0 1 .583-.87l.003-.003.002-.002c.103-.123.209-.234.329-.336l.004-.004a2.962 2.962 0 0 1 .28-.232 4.4 4.4 0 0 1 .479-.311 3.885 3.885 0 0 1 .564-.258l.005-.002.006-.002c.188-.078.382-.138.578-.19.22-.059.444-.106.666-.143.25-.042.5-.071.763-.091a10.705 10.705 0 0 1 .743-.029c1.393-.004 2.556-.003 3.759-.002h3.654v-3.063h-7.308zm-27.48 20.739h15.688v-3.063h-12.815v-5.876h10.554v-2.863h-10.554v-5.874h12.815v-3.063h-15.688zm-16.119 0h1.427c.368 0 .736-.005 1.103-.04.177-.017.353-.041.528-.076a3.736 3.736 0 0 0 1.513-.67 4.27 4.27 0 0 0 .857-.856 5.44 5.44 0 0 0 .328-.477 7.48 7.48 0 0 0 .284-.509l.237-.496.214-.508c.218-.537.428-1.077.64-1.617l.64-1.617 1.281-3.233.993-2.505.993-2.506.994-2.505.994-2.505.246-.619h-3.122l-.108.272c-1.001 2.525-2.002 5.05-3.001 7.576l-3.115 7.857-.193.474a7.422 7.422 0 0 1-.348.706 2.91 2.91 0 0 1-.151.232 1.686 1.686 0 0 1-.255.285l-.077.057-.007.004-.006.004-.06.035-.084.04-.05.02-.007.002a4.19 4.19 0 0 1-.568.097h-.005l-.006.001a6.05 6.05 0 0 1-.48.014l-6.991-17.676h-3.119l.245.619c2.616 6.615 5.23 13.23 7.851 19.847l.108.273h.277z" fill="#575669"/></svg>