<?xml version="1.0" encoding="UTF-8"?>
<svg width="1200px" height="160px" viewBox="0 0 1200 160" version="1.1" xmlns="http://www.w3.org/2000/svg" xmlns:xlink="http://www.w3.org/1999/xlink">
    <!-- Generator: Sketch 53.2 (72643) - https://sketchapp.com -->
    <title>Meatable_Logo_Black</title>
    <desc>Created with Sketch.</desc>
    <defs>
        <polygon id="path-1" points="0 0.944 1200 0.944 1200 159.999 0 159.999"></polygon>
    </defs>
    <g id="Meatable_Logo_Black" stroke="none" stroke-width="1" fill="none" fill-rule="evenodd">
        <mask id="mask-2" fill="white">
            <use xlink:href="#path-1"></use>
        </mask>
        <g id="Clip-2"></g>
        <path d="M0,159.999 L41.319,159.999 L41.319,76.029 L27.99,42.263 L33.766,42.263 L59.535,105.796 C71.975,136.452 114.182,136.452 126.623,105.796 L152.169,42.263 L157.945,42.263 L144.838,76.029 L144.838,159.999 L185.935,159.999 L185.935,35.598 C185.935,-2.611 132.176,-12.607 118.403,23.158 L95.744,82.027 L90.191,82.027 L67.532,23.158 C53.759,-12.607 0,-2.611 0,35.598 L0,159.999 Z M210.236,159.999 L330.416,159.999 L330.416,122.235 L260.44,122.235 C245.113,122.235 245.113,98.91 260.44,98.91 L314.866,98.91 L314.866,65.588 L260.44,65.588 C245.113,65.588 245.113,42.263 260.44,42.263 L330.416,42.263 L330.416,4.498 L210.236,4.498 L210.236,159.999 Z M342.856,159.999 L384.842,159.999 L392.839,128.899 L453.04,128.899 L460.593,159.999 L502.8,159.999 L469.257,36.265 C456.594,-10.83 389.063,-10.83 376.4,36.265 L342.856,159.999 Z M401.725,93.356 L415.053,42.263 L430.604,42.263 L443.932,93.356 L401.725,93.356 Z M539.01,159.999 L579.885,159.999 L579.885,63.144 C579.885,51.593 589.437,42.263 600.766,42.263 L628.756,42.263 L628.756,4.498 L490.138,4.498 L490.138,42.263 L517.906,42.263 C529.68,42.263 539.01,51.593 539.01,63.144 L539.01,159.999 Z M618.316,159.999 L660.301,159.999 L668.298,128.899 L728.5,128.899 L736.052,159.999 L778.482,159.999 L744.716,36.265 C732.054,-10.83 664.522,-10.83 651.859,36.265 L618.316,159.999 Z M677.184,93.356 L690.513,42.263 L706.063,42.263 L719.392,93.356 L677.184,93.356 Z M832.019,126.456 L832.019,95.355 L867.562,95.355 C896.219,95.355 896.219,126.456 867.562,126.456 L832.019,126.456 Z M790.922,159.999 L872.227,159.999 C911.103,159.999 931.095,140.451 931.095,114.46 C931.095,92.245 916.434,78.695 890.443,78.695 L890.443,73.141 C912.435,73.141 925.32,62.478 925.32,43.374 C925.32,20.937 907.548,4.498 874.448,4.498 L790.922,4.498 L790.922,159.999 Z M832.019,64.477 L832.019,37.598 L865.563,37.598 C888,37.598 888,64.477 865.563,64.477 L832.019,64.477 Z M947.866,159.999 L1063.6,159.999 L1063.6,122.235 L1009.84,122.235 C998.292,122.235 988.962,112.905 988.962,101.353 L988.962,4.498 L947.866,4.498 L947.866,159.999 Z M1079.82,159.999 L1200,159.999 L1200,122.235 L1130.25,122.235 C1114.7,122.235 1114.7,98.91 1130.25,98.91 L1184.45,98.91 L1184.45,65.588 L1130.25,65.588 C1114.7,65.588 1114.7,42.263 1130.25,42.263 L1200,42.263 L1200,4.498 L1079.82,4.498 L1079.82,159.999 L1079.82,159.999 Z" id="Fill-1" fill="#0B1414" mask="url(#mask-2)"></path>
    </g>
</svg>