<?xml version="1.0" encoding="UTF-8"?>
<svg width="540px" height="100px" viewBox="0 0 540 100" version="1.1" xmlns="http://www.w3.org/2000/svg" xmlns:xlink="http://www.w3.org/1999/xlink">
    <!-- Generator: Sketch 48.2 (47327) - http://www.bohemiancoding.com/sketch -->
    <title>decred - logo - primary - positive - mono</title>
    <desc>Created with Sketch.</desc>
    <defs></defs>
    <g id="Page-1" stroke="none" stroke-width="1" fill="none" fill-rule="evenodd">
        <g id="decred---logo---primary---positive---mono" fill="#FFFFFF" fill-rule="nonzero">
            <g id="_Group_2" transform="translate(56.000000, 0.000000)">
                <path d="M0.47,61.27 L31.9,61.27 C43.597391,61.27 53.08,51.787391 53.08,40.09 C53.08,28.392609 43.597391,18.91 31.9,18.91 L21.9,18.91 L0.47,0.32 L31.9,0.32 C50.9199547,0.324186053 67.2759734,13.7916718 70.9301678,32.4572968 C74.5843622,51.1229218 64.5142576,69.7638852 46.9,76.94 L71.68,98.45 L43.3,98.45 L0.47,61.27 Z" id="_Path_"></path>
            </g>
            <g id="_Group_3">
                <path d="M71.81,37.51 L40.38,37.51 C28.682609,37.51 19.2,46.992609 19.2,58.69 C19.2,70.387391 28.682609,79.87 40.38,79.87 L50.38,79.87 L71.8,98.46 L40.38,98.46 C21.3600453,98.4558139 5.00402656,84.9883282 1.34983216,66.3227032 C-2.30436225,47.6570782 7.76574242,29.0161148 25.38,21.84 L0.62,0.32 L29,0.32 L71.81,37.51 Z" id="_Path_2"></path>
            </g>
            <path d="M297.21,68.38 L297.21,68.21 C297.21,50.57 310.78,36.74 329.11,36.74 C341.47,36.74 349.43,41.93 354.79,49.36 L342.17,59.13 C338.71,54.81 334.74,52.04 328.95,52.04 C320.48,52.04 314.51,59.22 314.51,68.04 L314.51,68.21 C314.51,77.28 320.51,84.37 328.95,84.37 C335.26,84.37 338.95,81.43 342.61,77.02 L355.23,86.02 C349.52,93.89 341.83,99.68 328.43,99.68 C311.13,99.68 297.21,86.45 297.21,68.38 Z" id="_Compound_Path_"></path>
            <path d="M361.2,37.51 L390,37.51 C399.31,37.51 405.76,39.95 409.85,44.13 C413.42,47.61 415.25,52.31 415.25,58.32 L415.25,58.49 C415.25,67.8 410.25,73.99 402.71,77.21 L417.25,98.45 L397.75,98.45 L385.49,80 L378.09,80 L378.09,98.46 L361.2,98.46 L361.2,37.51 Z M389.2,66.76 C394.95,66.76 398.25,63.97 398.25,59.53 L398.25,59.36 C398.25,54.57 394.77,52.13 389.11,52.13 L378.09,52.13 L378.09,66.75 L389.2,66.76 Z" id="_Compound_Path_2"></path>
            <polygon id="_Compound_Path_3" points="423.19 37.52 472.19 37.52 472.19 51.89 439.89 51.89 439.89 61.12 469.14 61.12 469.14 74.44 439.91 74.44 439.91 84.1 472.65 84.1 472.65 98.47 423.19 98.47"></polygon>
            <path d="M481.49,37.52 L505,37.52 C526.77,37.52 539.39,50.06 539.39,67.64 L539.39,67.82 C539.39,85.41 526.59,98.47 504.65,98.47 L481.49,98.47 L481.49,37.52 Z M505.26,83.52 C515.36,83.52 522.06,77.95 522.06,68.11 L522.06,67.94 C522.06,58.19 515.36,52.53 505.26,52.53 L498.38,52.53 L498.38,83.53 L505.26,83.52 Z" id="_Compound_Path_4"></path>
            <path d="M262.76,99.61 C244.87,99.61 231.89,86.43 231.89,68.27 C231.89,50.34 244.51,36.81 261.25,36.81 C270.25,36.81 277.66,40.15 282.78,46.47 C287.45,52.23 290.02,60.35 290.02,69.32 C290.02,70.32 289.94,71.32 289.85,72.41 L244.36,72.41 L244.5,73.29 C246.13,83.29 253.22,89.57 262.99,89.57 C269.42,89.57 274.45,87.45 279.7,82.49 L286.91,88.89 C280.66,96.1 272.75,99.61 262.76,99.61 Z M261.13,46.85 C252.34,46.85 245.76,53.48 244.39,63.73 L244.28,64.59 L277.6,64.59 L277.51,63.76 C276.45,53.33 270.17,46.85 261.12,46.85 L261.13,46.85 Z" id="_Compound_Path_5"></path>
            <path d="M189.39,99.61 C175.5,99.61 161.44,88.8 161.44,68.15 C161.44,47.5 175.5,36.69 189.39,36.69 C197.64,36.69 204.39,40.16 209.88,47.29 L211.25,49 L211.25,9.62 L223.9,9.62 L223.9,98.46 L211.25,98.46 L211.25,86.38 L209.87,88.33 C204.48,95.92 197.79,99.61 189.39,99.61 Z M192.79,47.47 C181.86,47.47 174.22,55.97 174.22,68.15 C174.22,80.15 182.03,88.83 192.79,88.83 C203.55,88.83 211.48,79.94 211.48,68.15 C211.48,56.36 203.45,47.47 192.79,47.47 Z" id="_Compound_Path_6"></path>
        </g>
    </g>
</svg>