<svg xmlns="http://www.w3.org/2000/svg" viewBox="0 0 199.1 55" enable-background="new 0 0 199.1 55"><style type="text/css">.st0{fill:url(#SVGID_1_);} .st1{fill:url(#SVGID_2_);} .st2{fill:url(#SVGID_3_);} .st3{fill-rule:evenodd;clip-rule:evenodd;fill:#26313B;}</style><title>elpis_dark_logo</title><linearGradient id="SVGID_1_" gradientUnits="userSpaceOnUse" x1="27.384" y1="17.886" x2="27.384" y2=".717"><stop offset="0" stop-color="#164990"/><stop offset="1" stop-color="#1AC0F1"/></linearGradient><path class="st0" d="M8.5 8.2c.8-.9 1.7-1.7 2.7-2.3 1.1-.8 2.3-1.4 3.6-1.7 2-.5 4.1-1.1 6.1-1.7 2.6-.8 3.5-1.4 5.9-1.7 2.3-.2 4.2.2 4.4 1.1s-2.1 2-5 2.1c-2.7.3-3.3-.5-5.3-.5-2.1-.1-4.3.6-6 1.8-.7.5-1.3 1.2-2.6 2-1 .7-2 1.2-3.1 1.7-1 .3-1.6.2-.7-.8zm-4.8 9.4c1.2-1 2.3-3.7 5.2-5.6 4.2-1.8 3.3 1.3 6.7.5.8-.2 5.4-2 6-5.2.4-2-1.3-2.6-3.7-2-2.7.9-3.9 2.8-6.9 4.5-4.5 2.6-4.1.5-7 6-.8 1.7-1 2.5-.3 1.8zm32.7-6.3c3.7.5 3.1-2.4 8-1.1 3.6 1.5 4.7 4.2 6.4 5 1 .7 1.1-.2.4-1.8-1.2-2.2-2.1-3.7-4.1-3.9-2.5-.2-5-1-7.2-2.4-1.6-1-2.7-1.9-4.6-2.2-2.4-.3-4.3.5-4.2 2.3-.1 1.7 2.4 3.8 5.3 4.1zm4.1-6c2.4 1.2 4.4 1.9 4.6 1.4.3-.6-1.2-1.9-3.4-3.1-2.1-1.1-4.2-1.6-4.6-1.2-.4.3 1 1.7 3.4 2.9z"/><linearGradient id="SVGID_2_" gradientUnits="userSpaceOnUse" x1="27.384" y1="-35.253" x2="27.384" y2="-18.085" gradientTransform="matrix(1 0 0 -1 0 18.602)"><stop offset="0" stop-color="#F79425"/><stop offset="1" stop-color="#D51F26"/></linearGradient><path class="st1" d="M9.2 45.6c1.1.4 2.1 1 3 1.7 1.2.8 1.8 1.5 2.6 2 1.7 1.3 3.9 1.9 6 1.8 2 0 2.6-.8 5.3-.5 2.9.1 5.1 1.2 5 2.1s-2.1 1.2-4.4 1.2c-2.4-.3-3.3-.9-5.9-1.7-2-.6-4.1-1.2-6.1-1.7-1.3-.3-2.5-.9-3.6-1.7-1-.7-1.9-1.4-2.7-2.3-.8-1.2-.2-1.3.8-.9zm-5.3-6.9c2.9 5.5 2.5 3.4 7 6 3 1.7 4.3 3.6 6.9 4.5 2.5.6 4.2 0 3.7-2-.7-3.1-5.2-5-6-5.2-3.4-.8-2.5 2.3-6.7.5-2.9-1.9-4-4.6-5.2-5.6-.6-.7-.4.2.3 1.8zm27 8.7c-.1 1.8 1.8 2.6 4.2 2.3 1.9-.4 3-1.2 4.6-2.2 2.2-1.3 4.6-2.1 7.2-2.4 2-.2 2.9-1.7 4.1-3.9.7-1.5.6-2.4-.4-1.8-1.7.8-2.7 3.5-6.4 5-4.8 1.3-4.2-1.6-7.9-1.1-2.8.2-5.3 2.3-5.4 4.1zm6.2 4.9c.4.4 2.5-.1 4.6-1.2 2.1-1.2 3.6-2.6 3.4-3.1-.3-.5-2.3.2-4.6 1.4-2.4 1.1-3.8 2.5-3.4 2.9z"/><linearGradient id="SVGID_3_" gradientUnits="userSpaceOnUse" x1="23.72" y1="43.692" x2="23.72" y2="11.008"><stop offset=".312" stop-color="#B91C8D"/><stop offset=".691" stop-color="#513695"/></linearGradient><path class="st2" d="M2.8 31.9c-1.2-.2-1.7-2.4-1.7-4.6 0-2.2.5-4.4 1.7-4.6 2.2-.3 2.2 9.5 0 9.2zm36.8 2.1c3.7 0 6.7-3 6.7-6.7s-3-6.7-6.7-6.7c-6.2 0-4.7 5.4-13.3 5.4-7.1 0-7.2-4.3-10.9-4.3s-4.8 3.7-4.8 5.6c0 1.9 1.1 5.6 4.8 5.6 3.6 0 3.8-4.3 10.9-4.3 8.7 0 7.1 5.4 13.3 5.4zm-34 .2c0 2.7 2.4 6.3 4.1 6.3 1.1 0 1-1.6 3.7-1.6.5 0 1 .1 1.7.2 6.1.7 6.5 4.3 10.5 4.6h.2c3.8 0 5.4-2.7 5.4-4.8 0-2.8-2.7-5.5-5.9-5.5h-.2c-4 0-4.2 3.7-9.2 3.7-.3 0-.7 0-1.1-.1-2.1-.3-4.1-1.5-5.4-3.2-1.3-2-1.9-4.2-1.9-6.5s.6-4.5 1.9-6.5c1.3-1.7 3.2-2.9 5.4-3.2.4 0 .8-.1 1.1-.1 5 0 5.2 3.7 9.2 3.7 5.7 0 6.1-5.3 6.1-5.5 0-2.1-1.6-4.8-5.4-4.8h-.2c-4 .3-4.5 3.9-10.5 4.6-.6.1-1.2.2-1.7.2-2.7 0-2.6-1.7-3.7-1.7-1.7 0-4.1 3.7-4.1 6.4 0 1.1.9 2.9.9 7s-.9 5.8-.9 6.8z"/><path class="st3" d="M145.6 10.5h.9v32.6h-.9v-32.6zM76.6 29.6c.8-8.3-3.4-12.4-10.2-12.4-6.5 0-10.7 4.4-10.7 10.5 0 6.4 4.1 10.7 11.1 10.7 3.2.1 6.3-1.1 8.6-3.3l-3.1-3.1c-1.5 1.2-3.4 1.9-5.3 1.9-3.5 0-5.7-1.8-6-4.3h15.6zm-15.6-4.1c.7-2.6 2.9-3.9 5.6-3.9 2.9 0 4.9 1.3 5.2 3.9h-10.8zm19.5-16.1v28.5h4.9v-28.5h-4.9zm20.4 24.2c-3.1.1-5.6-2.4-5.7-5.4v-.3c0-3.2 2.6-5.7 5.7-5.7 3.2 0 5.7 2.6 5.7 5.7.1 3.1-2.4 5.6-5.4 5.7h-.3zm-6.1 12.7v-10.8c1.4 2.2 4.6 2.8 6.7 2.8 6.4 0 10.2-4.7 10.2-10.5s-4.1-10.5-10.3-10.5c-2.6 0-5 1.2-6.5 3.2l-.3-2.8h-4.7v28.5h4.9zm25.4-28.6v20.2h-5v-20.2h5zm-5.4-5.6c0 3.9 5.9 3.9 5.9 0s-5.9-3.8-5.9 0zm25.8 7.8c-2.2-1.9-5-2.8-7.8-2.6-3.7 0-8.5 1.6-8.5 6.3s4.5 6 8.3 6.2c2.9.2 4 .7 4 2.1s-1.8 2.5-3.6 2.4c-2.2 0-5.5-1.2-6.9-2.8l-2.4 3.5c2.9 3.1 6.1 3.6 9.3 3.6 5.8 0 8.6-3.1 8.6-6.6 0-5.4-4.8-6.2-8.6-6.5-2.6-.2-3.8-.9-3.8-2.2s1.3-2 3.7-2c1.8-.1 3.6.5 5 1.8l2.7-3.2zM152.6 20.5h1.2v-5.5h2.1v-1.1h-5.4v1.1h2.1v5.5zm9.8 0v-6.6h-1.2v2.8h-3.2v-2.8h-1.2v6.6h1.2v-2.6h3.2v2.6h1.2zm6.1-1.3h-3.7v-1.5h3.6v-1.2h-3.6v-1.5h3.7v-1.2h-4.9v6.6h4.9v-1.2zm7.8-.4c-.4.4-1 .7-1.6.7-1.2.1-2.2-.8-2.3-2v-.3c-.1-1.2.8-2.2 2-2.3h.2c.6 0 1.2.2 1.6.6l.8-.8c-.6-.6-1.5-1-2.4-1-1.8-.1-3.4 1.3-3.5 3.1v.3c-.1 1.8 1.3 3.3 3.1 3.4h.4c.9 0 1.8-.3 2.5-1l-.8-.7zm6.4.4h-3.7v-1.5h3.6v-1.2h-3.6v-1.5h3.7v-1.2h-4.9v6.6h4.9v-1.2zm1-5.3v6.6h4.6v-1.1h-3.4v-5.4h-1.2zm5.5 0v6.6h4.6v-1.1h-3.4v-5.4h-1.2zM156 24.8c-.5-.9-1.5-1.4-2.6-1.3-1.2 0-2.5.6-2.5 1.9s1.2 1.8 2.6 2c.9.1 1.5.4 1.5 1s-.7 1-1.5 1c-.8.1-1.5-.3-1.9-1l-1 .5c.5 1.1 1.7 1.8 2.9 1.6 1.5 0 2.8-.6 2.8-2.1s-1.3-1.9-2.6-2.1c-.8-.1-1.5-.3-1.5-.8s.4-.9 1.4-.9c.6 0 1.2.3 1.6.7l.8-.5zm6.1 3.8c-.4.4-1 .7-1.6.7-1.2.1-2.2-.8-2.3-1.9v-.3c-.1-1.2.8-2.2 2-2.3h.2c.6 0 1.2.2 1.6.6l.8-.8c-.6-.6-1.5-1-2.4-1-1.8-.1-3.4 1.3-3.5 3.1v.3c-.1 1.8 1.3 3.3 3 3.4h.4c.9 0 1.8-.3 2.5-1l-.7-.8zm2.8 1.7v-6.6h-1.2v6.6h1.2zm6-1.3h-3.7v-1.5h3.6v-1.1h-3.6v-1.5h3.7v-1.2h-4.9v6.6h4.9v-1.3zm5.5-1.2l-3.2-4.1h-1v6.6h1.2v-4.4l3.4 4.4h.8v-6.6h-1.2v4.1zm7.3.8c-.4.4-1 .7-1.6.7-1.2.1-2.2-.8-2.3-1.9v-.3c-.1-1.2.8-2.2 2-2.3h.2c.6 0 1.2.2 1.6.6l.8-.8c-.6-.6-1.5-1-2.4-1-1.8-.1-3.4 1.3-3.5 3.1v.3c-.1 1.8 1.3 3.3 3 3.4h.4c.9 0 1.8-.3 2.5-1l-.7-.8zm6.5.4h-3.7v-1.5h3.6v-1.1h-3.6v-1.5h3.7v-1.2h-4.9v6.6h4.9v-1.3zM155.9 38.4c-.4.4-1 .7-1.6.7-1.2.1-2.2-.8-2.3-1.9v-.3c-.1-1.2.8-2.2 2-2.3h.2c.6 0 1.2.2 1.6.6l.8-.8c-.6-.6-1.5-1-2.4-1-1.8-.1-3.4 1.3-3.5 3.1v.4c-.1 1.8 1.3 3.3 3 3.4h.4c.9 0 1.8-.3 2.5-1l-.7-.9zm4.6-5c-1.8-.1-3.3 1.4-3.4 3.2v.3c0 1.9 1.5 3.4 3.4 3.4s3.4-1.5 3.4-3.4c.1-1.8-1.3-3.3-3.1-3.4-.1-.1-.2-.1-.3-.1zm0 1.1c1.2 0 2.1.9 2.2 2.1v.3c0 1.2-1 2.2-2.2 2.2-1.2 0-2.1-1-2.1-2.2-.1-1.2.7-2.2 1.9-2.3 0-.1.1-.1.2-.1zm10 5.6h1.2v-6.6h-1.4l-2.1 2.8-2.1-2.8h-1.4v6.6h1.2v-4.8l2.1 2.9h.2l2.1-2.8.2 4.7zm3.6-5.4h1.9c.6-.1 1.2.4 1.3 1.1.1.6-.4 1.2-1.1 1.3h-2.1v-2.4zm1.9-1.2h-3.1v6.6h1.2v-2h1.9c1.3 0 2.3-1 2.3-2.3s-1-2.3-2.3-2.3zm8.5 6.6h1.4l-2.9-6.6h-1.4l-2.9 6.6h1.3l.6-1.2h3.4l.5 1.2zm-1-2.4h-2.5l1.2-2.8 1.3 2.8zm7.3-.1l-3.2-4.1h-1v6.6h1.2v-4.5l3.4 4.4h.8v-6.6h-1.2v4.2zm3.4-4.1h-1.5v.1l2.5 3.8v2.7h1.2v-2.7l2.6-3.8v-.1h-1.5l-1.7 2.7-1.6-2.7z"/></svg>