<svg preserveAspectRatio="xMidYmid" viewBox="0 0 476 130" xmlns="http://www.w3.org/2000/svg" xmlns:xlink="http://www.w3.org/1999/xlink"><title>filecoin-logo</title><defs><path id="a" d="M0 130V.844h129.156V130z"/></defs><g fill="none" fill-rule="evenodd"><g transform="translate(0 -.844)"><mask id="b" fill="#fff"><use xlink:href="#a"/></mask><path d="M128.457 74.844c-5.204 35.28-38.022 59.66-73.3 54.456C19.876 124.096-4.504 91.278.7 56 5.904 20.72 38.72-3.66 74 1.542c35.28 5.204 59.66 38.022 54.457 73.3" fill="#42C1CA" fill-rule="nonzero" mask="url(#b)"/></g><path d="M93.542 25.844c-13.055-8.257-22.39 9.92-22.61 10.473-2.328 4.54-4.244 11.49-5.432 16.672l-17.05-2.517-.667 4.586 16.784 2.475c-.465 2.398-.702 3.94-.702 3.94l-.827 5.053.047.007-.05.3-16.66-2.457-.627 4.59L62.21 71.4c-4.327 21.84-7.528 28.425-10.752 32.04-.656.774-5.278 3.867-7.604-1.666-1.625-3.866-4.708-3.334-4.708-3.334-.87-.083-4.915 2.53 1.423 6.54 13.053 8.256 22.39-9.922 22.61-10.473 2.326-4.54 5.43-16.807 6.618-21.99l17.113 2.525.67-4.585-16.85-2.487c.465-2.397.703-3.94.703-3.94l.826-5.053-.048-.007.052-.3 16.66 2.458.625-4.592-16.462-2.428c4.327-21.84 6.34-23.11 9.564-26.725.656-.773 5.28-3.867 7.604 1.667 1.625 3.865 4.71 3.333 4.71 3.333.87.083 4.913-2.53-1.424-6.54" fill="#FEFEFE" fill-rule="nonzero"/><path d="M199.064 57.736h-28.896V34.12h29.856l.672-7.2h-38.784V97h8.256V64.456h28.896v-6.72zM218.36 26.92h-7.872v9.216h7.872V26.92zm0 18.624h-7.872V97h7.872V45.544zm21.024-19.296l-7.872.864v47.904c0 17.088.288 22.944 12.96 22.944.768 0 2.592-.096 5.28-.576l-.48-6.144c-2.4.192-3.072.288-4.224.288-5.376 0-5.664-3.456-5.664-14.688V26.248zm38.4 71.904c-14.688 0-23.616-10.464-23.616-26.976 0-15.36 9.216-26.496 22.656-26.88 12.768 0 20.736 9.696 20.736 24.864 0 .768-.096 2.688-.096 3.552h-35.232c0 11.616 6.816 18.72 15.84 18.72 7.296 0 12.672-2.688 16.32-5.184l2.4 5.76c-4.224 3.648-10.752 6.144-19.008 6.144zM262.52 67.24h27.456c0-10.944-5.472-16.512-13.152-16.512-7.776 0-13.44 6.432-14.304 16.512zm81.12 26.208c-3.36 3.168-8.832 4.704-13.92 4.704-16.032 0-24.768-12.576-24.768-26.88.096-14.208 9.312-26.976 24.672-26.976 5.952 0 11.136 1.728 14.016 4.512l-2.016 5.568c-3.936-2.592-8.16-3.552-12.096-3.552-9.408 0-16.608 8.736-16.608 20.64 0 11.808 6.912 20.256 17.184 20.256 4.608 0 8.736-1.824 11.616-3.84l1.92 5.568zm45.792-22.08c0-10.944-4.032-20.544-15.648-20.544-11.04 0-16.128 10.176-16.128 20.64 0 10.368 5.088 20.256 16.32 20.256 11.136 0 15.456-9.888 15.456-20.352zm8.16-.096c0 14.208-8.352 26.88-23.808 26.88-15.552 0-24.192-12-24.192-26.784 0-14.688 8.832-27.072 24.384-27.072 15.744 0 23.616 12.192 23.616 26.976zm18.912-44.352h-7.872v9.216h7.872V26.92zm0 18.624h-7.872V97h7.872V45.544zm37.44-1.248c-7.104 0-14.304 3.36-18.336 8.832l-.672-7.584h-6.816l.192 12.48V97h7.872V61.864c1.248-4.608 7.392-10.848 16.032-10.848 9.504 0 10.08 6.816 10.08 20.16V97h7.872V66.184c0-14.4-4.896-21.888-16.224-21.888z" fill="#FFF"/></g></svg>