<svg xmlns="http://www.w3.org/2000/svg" width="500" height="182" viewBox="0 0 500 182"><g fill="none"><path fill="#1B7448" d="M120.661 172.761h9.213v9.182h-9.213zM117.627 176.331h-113.774v-28.042h120.39v21.448h3.791v-25.226h-127.972v35.599h117.565z"/><path fill="#C6C8CA" d="M498.182 177.434h-122.663v-30.309h122.663v30.309zm-124.181 0h-122.663v-30.309h122.663v30.309zm-245.967-31.822v1.513h121.785v30.309h-116.915v1.511h366.796v-33.333h-371.666z"/><path fill="#231F20" d="M116.101 132.317c0 9.785-2.595 17.751-7.781 23.899-5.611 6.431-13.185 9.645-22.722 9.645h-44.172c-9.537 0-17.004-3.146-22.4-9.435-5.403-6.288-8.1-14.254-8.1-23.897v-98.952c0-9.645 2.697-17.61 8.1-23.899 5.396-6.29 12.863-9.435 22.4-9.435h43.333c10.096 0 17.843 3.111 23.246 9.329 5.395 6.221 8.096 14.432 8.096 24.633l-29.448 7.547c.137-8.103-3.997-12.16-12.411-12.16h-22.927c-7.295 0-10.938 3.497-10.938 10.482v86.585c0 6.569 3.575 9.852 10.727 9.852h25.032c7.009 0 10.518-3.353 10.518-10.062v-15.307h-21.877v-29.348h51.325v50.523zm96.578-74.633v-17.609c0-6.987-3.297-10.484-9.886-10.484h-36.391v38.784h36.391c6.589 0 9.886-3.565 9.886-10.692zm29.448 108.178h-31.551l-25.244-68.135h-18.93v68.135h-29.451v-165.618h73.834c10.518 0 18.581 3.563 24.191 10.692 4.765 5.869 7.151 13.279 7.151 22.221v33.544c0 9.505-2.946 17.053-8.835 22.64-4.625 4.195-10.237 6.849-16.825 7.968l25.661 68.553zM260.814.243h29.451v165.618h-29.451zM386.844 126.659v-87.212c0-6.568-3.509-9.855-10.516-9.855h-28.397v106.919h28.397c7.008 0 10.516-3.281 10.516-9.852zm29.449 5.658c0 9.785-2.597 17.753-7.782 23.9-5.611 6.429-13.184 9.643-22.722 9.643h-74.672v-29.35h7.362v-106.919h-7.362v-29.349h74.672c9.538 0 17.11 3.217 22.722 9.645 5.185 6.151 7.782 14.118 7.782 23.899v98.531z"/></g></svg>