<svg xmlns="http://www.w3.org/2000/svg" width="496" height="496" viewBox="0 0 496 496">
  <g fill="none" fill-rule="evenodd" transform="translate(-1 -1)">
    <circle cx="247.717" cy="247.717" r="247.717" fill="#000" transform="translate(1.297 1.297)"/>
    <circle cx="221.131" cy="221.131" r="221.131" fill="#FEF102" transform="translate(27.343 27.885)"/>
    <path fill="#000" d="M287.922806,64.8474787 C282.646815,53.0037352 277.731376,29.604171 264.201598,24.4008093 C246.783565,17.7033617 236.01629,61.5506329 233.450923,72.6291762 L230.857024,72.6291762 C226.465553,53.6470222 220.572214,26.7431002 199.730234,20.7511932 C190.08093,61.2782735 209.810127,104.998444 228.263125,140.070554 C247.966383,130.6547 257.566404,101.167255 259.389915,80.4108736 L261.983814,80.4108736 L282.735007,142.664453 C299.429342,137.86574 305.237082,121.345196 311.265304,106.349865 C324.206267,74.1647645 335.064329,34.5818635 326.831293,0 C301.916891,7.05540569 294.337518,42.6826105 287.922806,64.8474787 L287.922806,64.8474787 Z M38.9084872,147.852252 C61.2030504,137.206889 71.8120979,103.512139 75.2230753,80.4108736 L77.8169745,80.4108736 C80.4549699,91.5464827 87.5077817,120.273916 101.421457,122.118178 C119.148164,124.463063 128.442104,85.1291762 129.694957,72.6291762 L132.288857,72.6291762 C137.940963,92.1586429 143.896555,117.555509 163.415646,127.101058 C170.61631,96.8561942 161.99419,64.6010583 150.933804,36.3145881 C148.09089,29.0412949 142.252023,9.43141731 132.224009,9.43141731 C115.794252,9.43141731 106.557377,52.7391575 103.755966,64.8474787 L101.162067,64.8474787 L80.4108736,2.59389915 C43.9095248,20.0249014 24.0817597,112.7127 38.9084872,147.852252 L38.9084872,147.852252 Z M0,178.979041 C27.0880888,297.133741 152.033617,364.115999 264.577713,314.219755 C305.537975,296.059867 338.029155,263.703569 356.762295,223.075327 C361.602511,212.577817 371.109151,193.577506 365.565989,179.803901 C360.046171,166.084769 306.510687,188.501245 293.133949,194.355675 C291.255966,195.190911 289.930484,196.923636 289.62181,198.957253 C289.62181,198.957253 289.62181,198.957253 289.62181,198.957253 C289.183441,201.833887 289.96161,204.764993 291.774746,207.04503 C293.585287,209.325067 296.264785,210.746524 299.167358,210.9696 C308.974891,211.724424 321.643495,212.69973 321.643495,212.69973 C280.952999,291.463478 170.93536,326.289168 93.3803694,263.363768 C76.0219963,249.28149 60.5364183,232.548247 50.1141316,212.69973 C45.0741855,203.102303 40.3999792,190.827973 31.8323304,184.242063 C23.6018884,177.912949 11.1148579,175.744449 0,178.979041 Z" transform="translate(65.39 101.162)"/>
  </g>
</svg>
