<svg xmlns="http://www.w3.org/2000/svg" width="500" height="285" viewBox="0 0 500 285"><g fill="none"><path fill="#E0F2F3" fill-rule="nonzero" d="M253.973 206.661v-128.967c0-4.568-2.457-8.783-6.433-11.033l-114.292-64.699c-3.875-2.194-8.617-2.194-12.492 0l-114.291 64.699c-3.975 2.25-6.433 6.465-6.433 11.033v128.968c0 4.568 2.457 8.783 6.433 11.033l114.292 64.699c3.875 2.194 8.617 2.194 12.492 0l114.292-64.699c3.975-2.251 6.432-6.465 6.432-11.033z"/><path stroke="#69C9D2" stroke-width="5" d="M236.226 203.409v-123.795l-109.52-61.898-109.52 61.898v123.795l109.52 61.897z"/><ellipse cx="18.373" cy="79.888" fill="#FFF" fill-rule="nonzero" stroke="#69C9D2" stroke-width="2" rx="6.819" ry="6.676"/><ellipse cx="235.633" cy="79.888" fill="#FFF" fill-rule="nonzero" stroke="#69C9D2" stroke-width="2" rx="6.819" ry="6.676"/><ellipse cx="127.003" cy="265.936" fill="#FFF" fill-rule="nonzero" stroke="#69C9D2" stroke-width="2" rx="6.819" ry="6.676"/><ellipse cx="127.003" cy="141.799" fill="#FFF" fill-rule="nonzero" stroke="#69C9D2" stroke-width="2" rx="6.819" ry="6.676"/><path fill="#69C9D2" fill-rule="nonzero" d="M235.084 86.327c-2.67 0-4.52-1.238-5.563-2.956l-96.407 54.945c.622 1.476.732 3.18.322 4.735-.609 2.697-2.732 5.011-6.379 5.011l-.055-.003v110.333c3.132.054 5.116 1.823 5.957 4.059l96.925-56.728c-2.582-3.897-.771-10.569 5.426-10.569l.322.016v-108.867l-.549.027z" opacity=".39"/><path fill="#69C9D2" fill-rule="nonzero" d="M120.707 262.587c.787-2.23 2.699-4.024 5.722-4.182v-110.374c-4.565-.35-6.486-4.491-5.788-8.059.069-.438.178-.868.326-1.286l-96.912-55.233c-1.026 1.792-2.908 3.096-5.647 3.096-.21 0-.41-.014-.609-.029v108.868l.269-.013c6.11 0 7.948 6.465 5.54 10.384l97.099 56.829z" opacity=".16"/><path fill="#69C9D2" fill-rule="nonzero" d="M229.339 76.301l-97.067-55.32-.248.333c-.87 2.239-2.89 4.001-6.071 4.001-2.914 0-4.852-1.474-5.827-3.439l-96.065 54.463c1.222 2.141 1.219 4.976-.006 7.116l96.912 55.233c.829-2.328 2.877-4.186 6.146-4.186 2.979 0 4.941 1.539 5.893 3.57l96.505-54.712c-1.262-2.095-1.318-4.895-.173-7.057z" opacity=".65"/><path fill="#FFF" fill-rule="nonzero" stroke="#69C9D2" stroke-width="2.5" d="M120.183 138.369l-96.136-54.781m205.912 0l-96.137 54.781m-6.819 9.679v111.212"/><ellipse cx="18.373" cy="202.359" fill="#FFF" fill-rule="nonzero" stroke="#69C9D2" stroke-width="2" rx="6.819" ry="6.676"/><ellipse cx="235.633" cy="202.359" fill="#FFF" fill-rule="nonzero" stroke="#69C9D2" stroke-width="2" rx="6.819" ry="6.676"/><ellipse cx="125.979" cy="18.418" fill="#FFF" fill-rule="nonzero" stroke="#69C9D2" stroke-width="2" rx="6.819" ry="6.676"/><path fill="#000" fill-rule="nonzero" d="M318.569 172.025h-11.116v-73.02h11.116v73.02zm40.984-73.02c4.779 0 8.935.543 12.467 1.627 3.532 1.086 6.458 2.619 8.778 4.602 2.32 1.984 4.043 4.382 5.169 7.195 1.125 2.814 1.688 5.933 1.688 9.356 0 3.424-.607 6.568-1.818 9.433-1.212 2.865-2.995 5.331-5.35 7.399-2.355 2.068-5.29 3.67-8.804 4.805-3.516 1.136-7.558 1.703-12.129 1.703h-11.531v26.899h-11.065v-73.02h22.596zm0 37.578c2.805 0 5.273-.356 7.402-1.067 2.13-.712 3.913-1.72 5.35-3.026 1.437-1.304 2.519-2.864 3.246-4.678.727-1.814 1.091-3.822 1.091-6.026 0-4.44-1.412-7.933-4.234-10.475s-7.108-3.813-12.856-3.813h-11.531v29.086h11.531v-.001zm51.373-28.78v24.459h29.92v8.797h-29.92v30.967h-11.116v-73.02h46.231v8.797h-35.114zm84.773 3.101c-.347.577-.71 1.001-1.091 1.271-.382.271-.866.407-1.454.407-.624 0-1.334-.28-2.13-.839-.797-.559-1.793-1.186-2.987-1.882-1.195-.695-2.623-1.322-4.286-1.882-1.663-.56-3.654-.839-5.973-.839-2.182 0-4.096.28-5.74.839-1.646.559-3.022 1.322-4.129 2.288-1.109.966-1.948 2.103-2.52 3.407-.571 1.305-.857 2.72-.857 4.246 0 1.967.511 3.593 1.533 4.882 1.021 1.289 2.364 2.39 4.026 3.305s3.549 1.713 5.662 2.39c2.112.678 4.276 1.382 6.493 2.11 2.206.726 4.373 1.566 6.493 2.517 2.112.95 4 2.144 5.662 3.585 1.662 1.441 3.004 3.204 4.026 5.288 1.021 2.084 1.533 4.635 1.533 7.652 0 3.221-.563 6.238-1.688 9.052-1.126 2.814-2.763 5.271-4.91 7.373-2.147 2.102-4.788 3.755-7.922 4.957-3.134 1.203-6.693 1.805-10.674 1.805-2.39 0-4.71-.229-6.961-.687-2.252-.458-4.381-1.101-6.389-1.932-1.973-.812-3.861-1.816-5.636-3-1.708-1.135-3.285-2.457-4.701-3.941l3.168-5.187c.308-.403.686-.748 1.117-1.016.433-.271.926-.407 1.481-.407.727 0 1.567.373 2.519 1.119.952.746 2.13 1.569 3.532 2.466 1.403.899 3.082 1.721 5.039 2.467 1.956.746 4.337 1.119 7.142 1.119 2.286 0 4.329-.297 6.13-.89 1.8-.593 3.315-1.44 4.545-2.542 1.229-1.101 2.173-2.432 2.831-3.991.657-1.559.986-3.288.986-5.187 0-2.136-.502-3.881-1.506-5.237-1.005-1.355-2.338-2.491-4-3.407-1.662-.916-3.55-1.695-5.662-2.339-2.112-.644-4.277-1.314-6.493-2.008-2.216-.695-4.381-1.5-6.493-2.416-2.112-.916-3.999-2.111-5.661-3.585-1.662-1.475-2.996-3.322-4-5.543-1.005-2.22-1.507-4.958-1.507-8.212 0-2.61.52-5.136 1.559-7.577s2.554-4.602 4.546-6.483c1.991-1.882 4.441-3.389 7.35-4.525 2.909-1.135 6.233-1.704 9.973-1.704 4.189 0 8.042.653 11.557 1.958 3.514 1.305 6.571 3.178 9.169 5.619l-2.701 5.135z"/></g></svg>