<svg xmlns="http://www.w3.org/2000/svg" preserveAspectRatio="xMidYMid meet" viewBox="0 0 55 55"><path d="M25.385 40.391c.508.344.931 1.031.931 1.719v11.859c0 .602-.423.859-.931.602l-10.154-5.93c-.508-.344-.931-1.031-.931-1.719v-11.945c0-.602.423-.859.931-.602l10.154 6.016zm15.231-10.313c0 .602-.423 1.375-.931 1.719l-10.154 5.93c-.508.344-.931.086-.931-.602v-11.859c0-.602.423-1.375.931-1.719l10.154-5.93c.508-.344.931-.086.931.602v11.859zm-2.031-15.555c.508.344.508.859 0 1.117l-10.154 5.93c-.508.344-1.438.344-1.946 0l-24.369-14.266c-.508-.344-.508-.859 0-1.117l10.154-5.93c.508-.344 1.438-.344 1.946 0l24.369 14.266zm-26.569 31.023c0 .602-.423.859-.931.602l-10.154-5.93c-.508-.344-.931-1.117-.931-1.719v-28.617c0-.602.423-.859.931-.602l24.454 14.266c.508.344.931 1.031.931 1.719v11.859c0 .602-.423.859-.931.602l-12.354-7.219c-.508-.344-.931-.086-.931.602v14.438h-.085zm30.885-28.617c0-.602.423-1.375.931-1.719l10.154-5.93c.508-.344.931-.086.931.602v28.617c0 .602-.423 1.375-.931 1.719l-24.454 14.266c-.508.344-.931.086-.931-.602v-11.859c0-.602.423-1.375.931-1.719l12.354-7.219c.508-.344.931-1.031.931-1.719l.085-14.438zm-12.269-9.625c-.508-.344-.508-.859 0-1.117l10.154-5.93c.508-.344 1.354-.344 1.946 0l10.154 5.93c.508.344.508.859 0 1.117l-10.154 5.93c-.508.344-1.354.344-1.946 0l-10.154-5.93z"/></svg>