<?xml version="1.0" encoding="UTF-8"?>
<svg width="1706px" height="476px" viewBox="0 0 1706 476" version="1.1" xmlns="http://www.w3.org/2000/svg" xmlns:xlink="http://www.w3.org/1999/xlink">
    <!-- Generator: Sketch 48.2 (47327) - http://www.bohemiancoding.com/sketch -->
    <title>Shape</title>
    <desc>Created with Sketch.</desc>
    <defs></defs>
    <g id="Page-1" stroke="none" stroke-width="1" fill="none" fill-rule="evenodd">
        <g id="logo" transform="translate(-2110.000000, -2619.000000)" fill="#FFFFFF" fill-rule="nonzero">
            <g id="e3ac6ecb-0008-4ab3-98a5-df85ee25bec8" transform="translate(1000.000000, 157.000000)">
                <path d="M1244,2522.37 L1170.42,2522.37 L1170.42,2619.22 L1110,2619.22 L1110,2680.85 L1170.37,2680.85 L1170.37,2929.24 L1244,2929.24 L1244,2680.85 L1303.74,2680.85 L1303.74,2619.22 L1244,2619.22 L1244,2522.37 Z M1486.73,2609.79 C1392.4,2609.79 1330.73,2677.07 1330.73,2774.55 C1330.73,2872.65 1393.62,2937.41 1485.42,2937.41 C1549.58,2937.41 1603.66,2905.35 1626.92,2850.63 L1564.68,2826.1 C1550.83,2855.04 1524.43,2873.27 1485.42,2873.27 C1443.93,2873.27 1406.19,2852.52 1401.16,2801.58 L1638.87,2801.58 L1638.87,2773.92 C1638.87,2674.54 1578.5,2609.79 1486.69,2609.79 L1486.73,2609.79 Z M1402.46,2749.39 C1408.75,2699.08 1439.56,2672.04 1484.83,2672.04 C1529.49,2672.04 1560.31,2697.19 1563.46,2749.39 L1402.46,2749.39 Z M1867.52,2619.22 L1800.87,2726.12 C1777.59,2689.02 1753.69,2651.29 1730.44,2619.22 L1642.38,2619.22 L1753.69,2777.05 L1645.49,2929.24 L1729.77,2929.24 L1795.16,2826.1 C1815.28,2858.18 1841.7,2899.68 1863.07,2929.24 L1950.49,2929.24 L1843,2776.42 L1953,2619.22 L1867.52,2619.22 Z M2256.07,2464.54 C2229.66,2464.54 2209.54,2485.29 2209.54,2511.7 C2209.54,2538.11 2229.66,2558.87 2256.07,2558.87 C2281.85073,2558.4946 2302.55321,2537.48846 2302.55321,2511.705 C2302.55321,2485.92154 2281.85073,2464.9154 2256.07,2464.54 Z M2106.4,2522.37 L2033.4,2522.37 L2033.4,2619.22 L1973.03,2619.22 L1973.03,2680.85 L2033.4,2680.85 L2033.4,2929.24 L2106.4,2929.24 L2106.4,2680.85 L2218.34,2680.85 L2218.34,2929.24 L2292.53,2929.24 L2292.53,2619.24 L2106.4,2619.24 L2106.4,2522.37 Z M2374.27,2929.24 L2448.48,2929.24 L2448.48,2462 L2374.27,2462 L2374.27,2929.24 Z M2815.72,2773.92 C2815.72,2674.56 2755.35,2609.79 2663.54,2609.79 C2569.22,2609.79 2507.59,2677.07 2507.59,2774.55 C2507.59,2872.65 2570.48,2937.41 2662.28,2937.41 C2726.43,2937.41 2780.51,2905.35 2803.77,2850.63 L2741.53,2826.1 C2727.68,2855.04 2701.28,2873.27 2662.28,2873.27 C2620.79,2873.27 2583,2852.54 2578,2801.54 L2815.7,2801.54 L2815.72,2773.92 Z M2579.28,2749.39 C2585.56,2699.08 2616.38,2672.04 2661.65,2672.04 C2706.3,2672.04 2737.12,2697.19 2740.27,2749.39 L2579.28,2749.39 Z" id="Shape"></path>
            </g>
        </g>
    </g>
</svg>