<svg xmlns="http://www.w3.org/2000/svg" preserveAspectRatio="xMidYMid meet" viewBox="0 0 400 53"><path d="M355.451 34.511c-.048-3.017-.718-5.457-2.187-7.652-3.549-5.305-10.526-6.259-15.323-2.057-3.914 3.428-4.947 7.781-3.776 12.688 1.428 5.987 8.179 9.579 14.013 7.552 4.374-1.52 7.239-5.824 7.273-10.532zm7.567 17.469c-2.404 0-4.762.023-7.117-.039-.211-.006-.565-.554-.583-.865-.069-1.2-.028-2.407-.028-3.698-.302.109-.451.117-.519.194-4.489 5.19-10.333 5.942-16.439 4.26-6.295-1.733-10.269-6.173-11.772-12.537-1.241-5.26-.992-10.449 1.697-15.293 4.287-7.724 14.927-11.036 22.406-6.953 1.235.674 2.27 1.722 3.353 2.649.336.288.524.748.779 1.129l.437-.256c.021-.391.059-.782.059-1.173.002-5.424.028-10.848-.028-16.271-.012-1.184.38-1.544 1.539-1.486 1.689.086 3.386.042 5.078.015.821-.013 1.241.222 1.24 1.142-.026 16.27-.03 32.541-.04 48.812l-.062.369zm-92.763-20.863c-.147-3.653-1.641-6.35-4.8-7.891-4.317-2.106-8.461-1.465-12.283 1.299-2.194 1.586-3.349 3.768-3.453 6.592h20.537zm-20.51 6.332c.35 2.727 1.697 4.644 3.771 6.146 5.177 3.747 13.736 2.53 17.059-1.47.15-.181.39-.288.678-.494l4.463 4.774c-2.293 2.418-4.873 4.178-7.995 5.065-5.315 1.51-10.654 1.747-15.738-.678-5.788-2.759-9.141-7.399-9.922-13.814-.51-4.18-.241-8.265 1.777-12.017 3.203-5.956 8.364-9.105 15.098-9.589 5.078-.366 9.733.892 13.72 4.183 3.006 2.481 4.791 5.648 5.165 9.507.226 2.334.186 4.693.322 7.038.062 1.061-.356 1.371-1.397 1.367-8.512-.032-17.023-.018-25.535-.017h-1.465zm-74.757-6.336c-.125-2.638-.841-4.866-2.79-6.534-3.005-2.571-6.534-3.187-10.224-2.083-3.643 1.09-6.533 3.187-7.364 7.228-.267 1.298-.142 1.469 1.177 1.469 5.97.003 11.94.003 17.91-.001.372 0 .744-.044 1.291-.079zm-20.44 6.336c.289 2.7 1.544 4.665 3.633 6.066 5.416 3.63 12.188 3.073 17.07-1.301.24-.215.934-.328 1.094-.169 1.398 1.392 2.724 2.856 4.127 4.36-2.269 2.407-4.822 4.135-7.893 5.031-5.22 1.524-10.469 1.758-15.515-.493-5.584-2.492-9.032-6.832-10.078-12.876-.775-4.48-.581-8.935 1.58-13.034 3.185-6.039 8.397-9.182 15.18-9.663 4.985-.354 9.558.883 13.513 4.062 3.122 2.509 4.909 5.755 5.313 9.691.235 2.291.175 4.61.321 6.912.071 1.117-.337 1.44-1.446 1.435-8.469-.039-16.939-.021-25.408-.02h-1.491zm157.971-6.362c-.473-1.533-.687-3.011-1.356-4.246-2.072-3.827-5.626-4.97-9.73-4.771-4.581.222-8.666 3.537-9.587 7.655-.294 1.314-.18 1.467 1.162 1.468 6.003.004 12.007.003 18.01-.002.368-.001.737-.049 1.501-.104zm-20.745 6.362c.311 2.72 1.635 4.578 3.61 6.043 5.225 3.875 13.695 2.647 17.069-1.239.344-.396.705-.79 1.237-.209 1.306 1.426 2.62 2.844 4.019 4.361-1.902 1.997-3.966 3.606-6.504 4.535-5.777 2.114-11.63 2.471-17.273-.189-5.696-2.685-9.033-7.281-9.832-13.594-.533-4.215-.271-8.339 1.714-12.157 2.575-4.954 6.723-8.038 12.196-9.197 5.82-1.233 11.265-.301 16.098 3.326 3.382 2.538 5.375 5.893 5.738 10.105.195 2.254.164 4.526.303 6.785.067 1.098-.315 1.455-1.438 1.449-8.465-.039-16.93-.021-25.395-.021h-1.542zm-188.132 14.536c-2.326 0-4.647.029-6.964-.039-.27-.008-.723-.538-.748-.853-.091-1.128-.031-2.269-.038-3.404-.003-.394-.034-.787-.068-1.553-1.591 2.263-3.294 3.836-5.445 4.928-5.332 2.704-13.568 1.752-17.354-3.281-1.654-2.199-2.635-4.688-2.684-7.35-.146-7.82-.068-15.644-.103-23.467-.004-.893.358-1.174 1.216-1.154 1.777.042 3.559.069 5.334-.009 1.096-.048 1.362.387 1.356 1.395-.033 6.351-.076 12.703.025 19.052.026 1.645.349 3.355.902 4.906.952 2.673 3.094 4.012 5.911 4.242 4.828.394 8.603-1.64 10.131-5.675.536-1.416.726-3.029.747-4.556.081-5.971.055-11.945.01-17.917-.008-1.076.264-1.507 1.418-1.451 1.817.089 3.641.045 5.461.014.733-.012 1.072.199 1.071.996-.022 11.566-.023 23.132-.032 34.698l-.144.478zm33.189-27.36c-2.345-.858-4.459-1.841-6.683-2.389-2.348-.579-4.778-.583-7.08.507-1.272.602-2.02 1.567-2.032 2.938-.012 1.333.83 2.192 2.054 2.587 2.325.751 4.707 1.34 7.005 2.163 2.019.722 4.017 1.556 5.916 2.544 4.177 2.174 5.079 6.581 4.334 10.505-1.114 5.865-6.307 8.584-11.033 8.937-6.199.463-11.911-.956-17.053-4.521-.854-.592-1.003-1.049-.409-1.908.909-1.315 1.746-2.684 2.542-4.07.455-.793.847-.83 1.578-.299 3.344 2.43 7.022 4.077 11.233 4.116 1.135.011 2.328-.355 3.399-.784 1.245-.499 1.97-1.514 2.054-2.933.083-1.403-.743-2.301-1.827-2.777-2.501-1.099-5.117-1.935-7.628-3.012-2.119-.909-4.286-1.81-6.202-3.063-4.387-2.869-4.268-8.339-2.292-11.795 1.746-3.053 4.575-4.705 7.878-5.479 5.636-1.321 10.993-.482 16.005 2.461.809.475 1.061.888.553 1.777-.853 1.493-1.579 3.057-2.311 4.497zm259.183.295c-3.24-1.99-6.454-3.238-10.049-2.951-1.317.105-2.658.474-3.885.973-1.122.457-1.702 1.549-1.689 2.759.013 1.199.715 2.104 1.847 2.48 2.398.796 4.86 1.41 7.241 2.252 1.943.687 3.854 1.5 5.693 2.427 3.536 1.784 4.862 4.868 4.747 8.65-.161 5.289-3.468 9.341-8.788 10.456-7.223 1.514-13.824-.137-19.847-4.297-.647-.447-.635-.853-.237-1.453.908-1.367 1.811-2.741 2.63-4.162.497-.863.9-.989 1.755-.366 3.305 2.41 6.964 3.999 11.126 4.048 1.096.013 2.248-.326 3.285-.73 1.288-.502 2.098-1.488 2.193-2.97.095-1.471-.805-2.351-1.927-2.84-2.503-1.091-5.123-1.917-7.635-2.989-2.081-.889-4.206-1.781-6.084-3.014-4.179-2.746-4.448-7.962-2.333-11.786 1.73-3.128 4.617-4.761 7.967-5.537 5.644-1.306 10.993-.426 15.996 2.521.761.448 1.009.832.528 1.676-.892 1.562-1.672 3.187-2.534 4.854zm-158.653-14.936c-2.302-2.111-4.713-3.446-7.535-1.647-2.76 1.758-2.199 4.633-2.182 7.485h6.263c3.074 0 3.074 0 3.074 2.999v3.307h-6.278c-3.086 0-3.086 0-3.086 3.025 0 8.454-.022 16.909.025 25.363.006 1.163-.337 1.559-1.5 1.504-1.648-.079-3.304-.076-4.953 0-1.118.051-1.521-.236-1.513-1.453.057-8.959 0-17.919.064-26.877.009-1.324-.397-1.622-1.648-1.589-2.982.08-2.983.021-2.983-2.973 0-3.293 0-3.293 3.3-3.303h1.297v-3.206c.008-5.857 3.662-10.499 9.441-11.641 3.991-.789 7.641.261 10.783 2.862.252.209.498.796.381 1.014-.904 1.688-1.898 3.328-2.951 5.133zm-46.366 42.014v-1.48c0-11.018.018-22.036-.025-33.054-.005-1.231.27-1.758 1.611-1.668 1.644.11 3.303.084 4.951.007 1.092-.051 1.395.38 1.355 1.394-.063 1.57-.017 3.144.123 4.776 2.12-2.77 4.618-4.961 7.909-6.079 1.048-.356 2.187-.45 3.692-.743 0 2.601.005 4.895-.002 7.189-.003.96-.744.86-1.364.891-3.115.154-5.787 1.259-7.696 3.771-1.9 2.501-2.66 5.41-2.672 8.512-.02 5.004-.041 10.009.02 15.013.014 1.186-.381 1.533-1.528 1.492-2.065-.073-4.133-.021-6.373-.021zm-167.673-25.231c7.024 0 14.049 0 21.073.001.38 0 .83-.108 1.125.054.429.236 1.061.7 1.034 1.018-.037.443-.554.905-.967 1.233-.218.172-.652.097-.988.097-14.218.003-28.435.003-42.652-.007-.414 0-.901 0-1.222-.204-.341-.217-.763-.712-.718-1.024.057-.396.483-.858.872-1.056.377-.192.907-.108 1.371-.109 7.024-.005 14.049-.003 21.073-.003zm-2.729-11.712c6.142 0 12.283-.001 18.424.002.423 0 .936-.116 1.246.077.403.252.852.742.889 1.163.028.32-.496.803-.884 1.011-.336.18-.826.091-1.249.091-12.283.003-24.566.004-36.849-.001-.913-.001-2.132.193-2.172-1.105-.043-1.397 1.201-1.237 2.17-1.237 6.142-.003 12.283-.001 18.424-.001zm-3.818 35.254c4.953 0 9.906-.001 14.859.002.338 0 .762-.098.995.064.404.281.902.701.959 1.117.044.321-.467.815-.844 1.062-.277.181-.736.111-1.115.112-9.906.005-19.812.006-29.717-.004-.415 0-.908.016-1.223-.19-.335-.219-.703-.706-.682-1.053.021-.353.436-.793.793-.986.337-.182.823-.118 1.243-.119 4.911-.006 9.821-.004 14.732-.004zm-5.989-9.36c-2.922 0-5.843.005-8.765-.006-.419-.002-.903.036-1.237-.153-.353-.2-.805-.672-.776-.985.038-.401.449-.854.821-1.109.269-.184.737-.103 1.116-.103 5.886-.005 11.772-.003 17.658-.003.212 0 .485-.077.624.024.461.335.873.736 1.304 1.111-.406.401-.752 1.024-1.232 1.152-.752.2-1.595.07-2.399.071-2.371.003-4.743.001-7.114.001z"/></svg>