<svg xmlns="http://www.w3.org/2000/svg" preserveAspectRatio="xMidYMid meet" viewBox="0 0 400 57"><path d="M378.838 56.423h-6.574v-21.044c0-1.626-.382-2.958-1.245-4.31-6.192-9.871-12.384-19.734-18.586-29.594l-.644-1.019h8.473l.187.302 15.099 24.03 15.223-24.233.414-.099h8.123l-19.24 30.61c-.845 1.367-1.231 2.691-1.231 4.318v21.041zm-36.306-.021h-7.73l-.166-.405c-2.044-4.921-4.077-9.846-6.11-14.767l-1.888-4.587c-1.224-2.954-4.031-4.854-7.161-4.854h-19.276v24.613h-6.57v-55.968h29.368c3.653 0 7.239.195 10.906 2.539 3.183 2.059 5.407 5.276 6.432 9.313.958 3.742.76 7.914-.548 11.454-.732 1.992-1.683 3.561-2.999 4.928-1.4 1.456-2.977 2.301-4.498 2.961 1.881 4.548 3.713 8.987 5.541 13.428l4.7 11.344zm-42.331-31.909h22.816c.774 0 1.542 0 2.316-.025.442-.014.884-.028 1.308-.075.389-.032.774-.067 1.149-.131.336-.053.665-.121.994-.195.255-.071.52-.149.792-.252.226-.082.46-.192.704-.305.368-.199.736-.447 1.05-.724.339-.295.637-.643.909-1.065.311-.444.573-.952.796-1.505.244-.646.428-1.296.537-1.928.127-.692.191-1.42.191-2.169 0-.746-.064-1.481-.191-2.187-.117-.66-.304-1.31-.537-1.924-.219-.554-.484-1.058-.789-1.488-.279-.43-.576-.778-.905-1.062-.332-.295-.69-.543-1.086-.746-.449-.227-.941-.408-1.492-.543-.615-.156-1.284-.263-2.115-.33-.449-.039-.884-.06-1.312-.075-.523-.018-1.05-.021-1.559-.021l-23.579.004v16.748h.004zm-15.998 31.909h-7.727l-9.282-22.582c-3.575-8.699-7.147-17.391-10.725-26.086h-.912c-.283.004-.598.018-.905.032-.226.011-.467.032-.682.067-.216.028-.385.05-.537.096-.226.043-.371.078-.513.128l-.368.146-.347.181-.233.167c-.294.231-.513.447-.707.685-.258.305-.509.668-.757 1.086-.332.572-.608 1.147-.81 1.587-.226.486-.428.962-.629 1.442l-.29.685c-2.896 7.012-5.789 14.032-8.674 21.055l-8.777 21.304h-7.727l18.632-45.199c1.167-2.844 2.5-6.068 5.209-8.28 2.825-2.308 5.732-2.493 9.24-2.493h4.509l.166.405 22.847 55.574zm-79.755 0h-6.574v-48.668h-19.332v-7.3h45.238v7.3h-19.332v48.668zm-35.471 0h-20.382c-8.214 0-14.466-2.361-18.59-7.012-4.116-4.644-6.195-11.692-6.188-20.931v-.231c.039-18.442 8.402-27.794 24.87-27.794h20.368v7.3h-20.368c-.891 0-1.701.028-2.468.085-.704.05-1.432.128-2.217.256-.693.107-1.344.241-1.963.405-.661.167-1.22.344-1.722.54-.573.206-1.061.423-1.535.66-.453.231-.891.494-1.291.767-.428.288-.799.575-1.142.877-.364.298-.69.621-1.018 1.001-.371.415-.679.795-.937 1.175-.354.522-.608.937-.824 1.339-.534.994-.987 2.113-1.383 3.423-.385 1.271-.693 2.73-.937 4.46-.113 1.015-.187 1.85-.23 2.613-.064.909-.088 1.857-.088 2.894v.231c0 .966.025 1.96.074 2.926.071.927.134 1.79.237 2.649.095.753.226 1.555.396 2.375.156.724.325 1.431.52 2.113.396 1.303.849 2.436 1.376 3.441.219.398.502.888.817 1.339.294.451.629.849.923 1.186.308.348.647.689 1.018 1.005.364.323.746.618 1.139.877.403.273.835.529 1.308.774.484.252.987.472 1.482.653 1.1.419 2.306.735 3.695.966.774.124 1.513.206 2.207.252.767.067 1.602.089 2.468.089h20.4l-.004.664c-.014 1.992-.014 3.977-.014 5.972v.664h.004zm-54.828 0h-43.806v-55.968h43.806v7.3h-36.691v17.306h30.216v6.753h-30.216v17.309h36.691v7.3zm-86.311 0h-4.512l-.163-.405c-5.41-13.13-10.803-26.25-16.203-39.376l-6.655-16.187h7.723l.163.405 19.859 48.263h.414c.46 0 .919 0 1.358-.039.262-.011.509-.039.736-.064l.612-.103.435-.121.697-.323.23-.16c.297-.231.516-.451.711-.696.262-.312.516-.675.753-1.083.308-.525.576-1.04.82-1.598.322-.696.615-1.41.898-2.113l8.702-21.108c2.861-6.952 5.725-13.904 8.593-20.856l.163-.405h7.741l-.382.92c-6.096 14.763-12.179 29.516-18.254 44.283-1.163 2.833-2.489 6.05-5.209 8.273-2.829 2.315-5.608 2.493-9.229 2.493z"/></svg>